<?xml version="1.0" encoding="UTF-8" standalone="no"?>
<!-- Created with Inkscape (http://www.inkscape.org/) -->

<svg
   width="85mm"
   height="55mm"
   viewBox="0 0 85 55"
   version="1.1"
   id="svg1"
   xml:space="preserve"
   inkscape:version="1.4 (86a8ad7, 2024-10-11)"
   sodipodi:docname="card1-horizontal.svg"
   xmlns:inkscape="http://www.inkscape.org/namespaces/inkscape"
   xmlns:sodipodi="http://sodipodi.sourceforge.net/DTD/sodipodi-0.dtd"
   xmlns="http://www.w3.org/2000/svg"
   xmlns:svg="http://www.w3.org/2000/svg"><sodipodi:namedview
     id="namedview1"
     pagecolor="#505050"
     bordercolor="#eeeeee"
     borderopacity="1"
     inkscape:showpageshadow="0"
     inkscape:pageopacity="0"
     inkscape:pagecheckerboard="0"
     inkscape:deskcolor="#d1d1d1"
     inkscape:document-units="mm"
     inkscape:zoom="1.3761811"
     inkscape:cx="232.16421"
     inkscape:cy="102.82077"
     inkscape:window-width="1920"
     inkscape:window-height="1027"
     inkscape:window-x="-8"
     inkscape:window-y="-8"
     inkscape:window-maximized="1"
     inkscape:current-layer="layer1"><inkscape:page
       x="0"
       y="0"
       width="84.999992"
       height="55.000004"
       id="page1"
       margin="5.0000005 5"
       bleed="5.0000005" /><inkscape:page
       x="94.999992"
       y="0"
       width="84.999992"
       height="55.000004"
       id="page2"
       margin="5.0000005 5"
       bleed="5.0000005" /></sodipodi:namedview><defs
     id="defs1"><inkscape:path-effect
       effect="fillet_chamfer"
       id="path-effect1"
       is_visible="true"
       lpeversion="1"
       nodesatellites_param="F,0,0,1,0,3.1790202,0,1 @ F,0,0,1,0,0,0,1"
       radius="0"
       unit="px"
       method="auto"
       mode="F"
       chamfer_steps="1"
       flexible="false"
       use_knot_distance="true"
       apply_no_radius="true"
       apply_with_radius="true"
       only_selected="false"
       hide_knots="false" /></defs><rect
     style="fill:#ffffff;fill-opacity:1;stroke:none;stroke-width:0.264583"
     id="rect4"
     width="95.135429"
     height="64.864571"
     x="89.864563"
     y="-4.8645706"
     sodipodi:insensitive="true" /><rect
     style="fill:#ffffff;fill-opacity:1;stroke:none;stroke-width:0.270859"
     id="rect3"
     width="94.861427"
     height="64.861435"
     x="-4.9968624"
     y="-4.8645706"
     ry="0"
     sodipodi:insensitive="true" /><g
     inkscape:label="Layer 1"
     inkscape:groupmode="layer"
     id="layer1"><g
       id="g2"><text
         xml:space="preserve"
         style="font-style:normal;font-variant:normal;font-weight:normal;font-stretch:normal;font-size:4.23333px;line-height:1.25;font-family:'HandelGothic BT';-inkscape-font-specification:'HandelGothic BT';text-align:start;writing-mode:lr-tb;text-anchor:start;fill:#000000;fill-opacity:1;stroke-width:0.264583"
         x="100.10626"
         y="9.8228245"
         id="text4"><tspan
           sodipodi:role="line"
           id="tspan4"
           style="font-style:normal;font-variant:normal;font-weight:normal;font-stretch:normal;font-size:4.23333px;font-family:'HandelGothic BT';-inkscape-font-specification:'HandelGothic BT';text-align:start;writing-mode:lr-tb;text-anchor:start;fill:#000000;fill-opacity:1;stroke-width:0.264583"
           x="100.10626"
           y="9.8228245" /><tspan
           sodipodi:role="line"
           style="font-style:normal;font-variant:normal;font-weight:normal;font-stretch:normal;font-size:4.23333px;font-family:'HandelGothic BT';-inkscape-font-specification:'HandelGothic BT';text-align:start;writing-mode:lr-tb;text-anchor:start;fill:#000000;fill-opacity:1;stroke-width:0.264583"
           x="100.10626"
           y="15.114487"
           id="tspan8" /><tspan
           sodipodi:role="line"
           style="font-style:normal;font-variant:normal;font-weight:normal;font-stretch:normal;font-size:4.23333px;font-family:'HandelGothic BT';-inkscape-font-specification:'HandelGothic BT';text-align:start;writing-mode:lr-tb;text-anchor:start;fill:#000000;fill-opacity:1;stroke-width:0.264583"
           x="100.10626"
           y="20.406149"
           id="tspan10" /><tspan
           sodipodi:role="line"
           style="font-style:normal;font-variant:normal;font-weight:normal;font-stretch:normal;font-size:4.23333px;font-family:'HandelGothic BT';-inkscape-font-specification:'HandelGothic BT';text-align:start;writing-mode:lr-tb;text-anchor:start;fill:#000000;fill-opacity:1;stroke-width:0.264583"
           x="100.10626"
           y="25.697811"
           id="tspan11">040123456</tspan><tspan
           sodipodi:role="line"
           style="font-style:normal;font-variant:normal;font-weight:normal;font-stretch:normal;font-size:4.23333px;font-family:'HandelGothic BT';-inkscape-font-specification:'HandelGothic BT';text-align:start;writing-mode:lr-tb;text-anchor:start;fill:#000000;fill-opacity:1;stroke-width:0.264583"
           x="100.10626"
           y="30.989473"
           id="tspan9">maj.kolman@nvidia.com</tspan><tspan
           sodipodi:role="line"
           style="font-style:normal;font-variant:normal;font-weight:normal;font-stretch:normal;font-size:4.23333px;font-family:'HandelGothic BT';-inkscape-font-specification:'HandelGothic BT';text-align:start;writing-mode:lr-tb;text-anchor:start;fill:#000000;fill-opacity:1;stroke-width:0.264583"
           x="100.10626"
           y="36.281136"
           id="tspan12">www.nvidia.com</tspan><tspan
           sodipodi:role="line"
           style="font-style:normal;font-variant:normal;font-weight:normal;font-stretch:normal;font-size:4.23333px;font-family:'HandelGothic BT';-inkscape-font-specification:'HandelGothic BT';text-align:start;writing-mode:lr-tb;text-anchor:start;fill:#000000;fill-opacity:1;stroke-width:0.264583"
           x="100.10626"
           y="41.5728"
           id="tspan7" /><tspan
           sodipodi:role="line"
           style="font-style:normal;font-variant:normal;font-weight:normal;font-stretch:normal;font-size:4.23333px;font-family:'HandelGothic BT';-inkscape-font-specification:'HandelGothic BT';text-align:start;writing-mode:lr-tb;text-anchor:start;fill:#000000;fill-opacity:1;stroke-width:0.264583"
           x="100.10626"
           y="46.86446"
           id="tspan5" /></text><text
         xml:space="preserve"
         style="font-style:normal;font-variant:normal;font-weight:normal;font-stretch:semi-expanded;font-size:7.76111px;line-height:1.25;font-family:'HandelGothic BT';-inkscape-font-specification:'HandelGothic BT Semi-Expanded';stroke-width:0.264583"
         x="99.423981"
         y="10.570719"
         id="text14"><tspan
           sodipodi:role="line"
           id="tspan14"
           style="font-style:normal;font-variant:normal;font-weight:normal;font-stretch:semi-expanded;font-size:7.76111px;font-family:'HandelGothic BT';-inkscape-font-specification:'HandelGothic BT Semi-Expanded';stroke-width:0.264583"
           x="99.423981"
           y="10.570719">Maj Kolman</tspan></text><text
         xml:space="preserve"
         style="font-style:normal;font-variant:normal;font-weight:normal;font-stretch:normal;font-size:4.23333px;line-height:1.25;font-family:'HandelGothic BT';-inkscape-font-specification:'HandelGothic BT';stroke-width:0.264583"
         x="99.882179"
         y="17.603403"
         id="text1"><tspan
           sodipodi:role="line"
           id="tspan1"
           style="font-style:normal;font-variant:normal;font-weight:normal;font-stretch:normal;font-size:4.23333px;font-family:'HandelGothic BT';-inkscape-font-specification:'HandelGothic BT';stroke-width:0.264583"
           x="99.882179"
           y="17.603403">CTO</tspan><tspan
           sodipodi:role="line"
           style="font-style:normal;font-variant:normal;font-weight:normal;font-stretch:normal;font-size:4.23333px;font-family:'HandelGothic BT';-inkscape-font-specification:'HandelGothic BT';stroke-width:0.264583"
           x="99.882179"
           y="22.895065"
           id="tspan2" /></text><text
         xml:space="preserve"
         style="font-style:normal;font-variant:normal;font-weight:normal;font-stretch:normal;font-size:4.23333px;line-height:1.25;font-family:'HandelGothic BT';-inkscape-font-specification:'HandelGothic BT';stroke-width:0.264583"
         x="99.897491"
         y="44.309399"
         id="text3"><tspan
           sodipodi:role="line"
           id="tspan3"
           style="font-style:normal;font-variant:normal;font-weight:normal;font-stretch:normal;font-size:4.23333px;font-family:'HandelGothic BT';-inkscape-font-specification:'HandelGothic BT';stroke-width:0.264583"
           x="99.897491"
           y="44.309399">Nvidia Corporation</tspan><tspan
           sodipodi:role="line"
           style="font-style:normal;font-variant:normal;font-weight:normal;font-stretch:normal;font-size:4.23333px;font-family:'HandelGothic BT';-inkscape-font-specification:'HandelGothic BT';stroke-width:0.264583"
           x="99.897491"
           y="49.601059"
           id="tspan6">Santa Clara, California, U.S</tspan></text></g><g
       id="g1"
       transform="matrix(0.30505933,0,0,0.30505933,11.959181,5.1222442)"><g
         inkscape:label="Layer 1"
         id="layer1-8"
         style="display:inline"
         transform="matrix(0.45893322,0,0,0.45893322,-40.280085,-5.4434908)"><path
           id="rect2"
           style="display:inline;fill:#77b900;fill-opacity:1;stroke:none;stroke-width:0.350414;stroke-linejoin:miter;stroke-dasharray:none;stroke-dashoffset:0;stroke-opacity:0.352697"
           d="m 91.100409,128.7703 v 12.77234 c 0.02888,-0.004 29.911931,-4.57593 56.199671,26.47642 0.002,0.57422 -25.00777,29.58914 -49.41869,29.57236 -1.726836,-0.001 -4.091238,-0.14921 -6.780981,-0.65629 v 7.99641 c 2.24243,0.29825 4.490077,0.4047 6.723104,0.31419 4.979017,-0.2018 26.200627,0.58848 55.820357,-26.23509 4.66589,3.01971 16.01811,8.77317 16.23777,9.80664 -19.29921,15.66962 -59.40237,25.23866 -78.781231,23.54585 v 11.00553 H 180.68615 V 128.7703 Z m 0,83.59283 v -7.43159 C 75.715315,202.88528 60.5917,191.58284 52.363755,169.48823 67.793542,149.1868 90.981229,148.43896 91.100409,148.43525 v -6.89261 l -0.0052,5.2e-4 c 0,0 -24.884496,0.56896 -53.288737,26.47746 0,0 13.616453,40.22231 53.250496,44.34044 0.0136,0.001 0.02979,8.8e-4 0.04341,0.002 z m 0,-63.92788 v 8.5881 c 1.63602,-0.18301 3.113803,-0.2855 4.215246,-0.29817 3.994224,-0.046 14.941165,0.36773 24.324615,11.60963 l -12.12898,10.28102 c -4.06253,-5.65619 -5.49159,-13.04136 -16.364373,-14.23375 -0.01454,-0.002 -0.03191,-0.001 -0.04651,-0.003 v 25.90591 c 4.100696,1.45486 19.084283,5.78268 41.184563,-21.86223 -18.98561,-23.57547 -41.163374,-19.98896 -41.163374,-19.98896 0,0 -0.02088,0.002 -0.02119,0.002 z m 0,41.84964 c -0.0094,-0.003 -0.02789,-0.008 -0.03721,-0.0114 -10.718733,-3.81442 -14.36877,-12.72183 -16.231048,-18.46192 6.910694,-7.25041 12.576843,-7.82811 16.268258,-7.43262 v -7.35563 c -6.901496,0.77205 -17.866068,3.60042 -27.817424,13.43484 6.205924,18.98071 18.885808,24.79312 27.817424,26.47694 z" /></g><g
         id="layer4"
         inkscape:label="Text"
         transform="matrix(0.81484455,0,0,0.81484455,49.302172,-36.849051)"
         style="display:inline"><g
           id="g3"
           style="display:inline"><path
             id="path1"
             style="display:inline;fill:#000000;stroke:none;stroke-width:0.11708;stroke-dasharray:none;stroke-opacity:1"
             d="m 199.17707,147.07423 a 4.8318658,4.6834574 0 0 0 -4.83174,4.68343 4.8318658,4.6834574 0 0 0 4.83174,4.68344 4.8318658,4.6834574 0 0 0 4.83175,-4.68344 4.8318658,4.6834574 0 0 0 -4.83175,-4.68343 z m -0.0227,1.12293 a 3.4575963,3.5489252 0 0 1 3.45767,3.54913 3.4575963,3.5489252 0 0 1 -3.45767,3.54862 3.4575963,3.5489252 0 0 1 -3.45767,-3.54862 3.4575963,3.5489252 0 0 1 3.45767,-3.54913 z" /><path
             id="path2"
             style="display:inline;fill:#000000;fill-opacity:1;stroke:none;stroke-width:0.1;stroke-linecap:butt;stroke-linejoin:miter;stroke-dasharray:none;stroke-opacity:1"
             d="m 197.30483,149.24619 -0.0341,4.98884 1.10742,-0.0232 0.0114,-2.10065 0.47904,0.0119 1.233,2.1115 1.26763,5.2e-4 -1.3131,-2.19211 c 0.97396,-0.0582 1.23063,-0.61172 1.22163,-1.33584 -0.0197,-1.59244 -1.19496,-1.36209 -3.97289,-1.46089 z m 1.69189,0.83509 c 0.62257,-0.002 1.19652,0.0692 1.18494,0.64854 -0.0145,0.72557 -0.80124,0.54419 -1.79214,0.54828 l -0.0114,-1.18752 c 0.19849,-5e-4 0.41105,-0.009 0.61857,-0.009 z" /></g><g
           id="g12"
           transform="matrix(0.98942109,0,0,1.0000006,0.40987718,-1.6440031)"><path
             style="fill:#000000;fill-opacity:1;stroke:none;stroke-width:0.1;stroke-linejoin:miter;stroke-dasharray:none;stroke-dashoffset:0;stroke-opacity:0.352697"
             d="m 138.44695,120.76079 10.06227,-0.006 0.0323,35.65337 -10.08926,-0.0269 z"
             id="path9-4"
             sodipodi:nodetypes="ccccc" /><path
             style="fill:#000000;fill-opacity:1;stroke:none;stroke-width:0.1;stroke-linejoin:miter;stroke-dasharray:none;stroke-dashoffset:0;stroke-opacity:0.352697"
             d="m 83.184038,120.72809 10.062271,-0.006 0.03229,35.65337 -10.089257,-0.0269 z"
             id="path9"
             sodipodi:nodetypes="ccccc" /><path
             id="path10"
             style="fill:#000000;fill-opacity:1;stroke:none;stroke-width:0.1;stroke-linejoin:miter;stroke-dasharray:none;stroke-dashoffset:0;stroke-opacity:0.352697"
             d="m 107.09476,120.70788 c -2.28052,-0.002 -4.85737,0.004 -7.781959,0.009 l 0.0093,35.66914 c 17.002889,-0.61256 23.409249,1.6824 29.815749,-3.6313 6.19237,-5.1361 6.17942,-22.16526 0.16899,-27.41435 -4.79065,-4.18382 -6.2485,-4.61757 -22.21208,-4.63279 z m 3.86177,7.77678 c 7.9315,0.0418 8.38674,0.75217 10.79004,3.00189 2.85881,2.6761 3.30223,11.15039 -0.32297,14.66112 -2.77402,2.68641 -4.85417,2.58121 -12.10624,2.62981 l 0.002,-20.17241 -0.0517,-0.11989 c 0.59801,-0.003 1.16002,-0.003 1.68878,-5.2e-4 z" /><path
             id="path11"
             style="fill:#000000;fill-opacity:1;stroke:none;stroke-width:0.1;stroke-linejoin:miter;stroke-dasharray:none;stroke-dashoffset:0;stroke-opacity:0.352697"
             d="m 179.9854,120.80451 -13.35681,0.0227 -14.08751,35.50429 h 9.93221 l 2.21485,-6.30194 16.57573,0.0227 2.14664,6.30194 h 10.73061 z m -6.86677,6.46162 6.07353,16.63878 -12.34085,0.0171 z" /><path
             style="fill:#000000;fill-opacity:1;stroke:none;stroke-width:0.1;stroke-linejoin:miter;stroke-dasharray:none;stroke-dashoffset:0;stroke-opacity:0.352697"
             d="m 41.479245,120.78737 10.823395,0.0381 8.059733,28.09971 8.316594,-28.09775 10.302985,-0.0457 -11.581584,35.56671 -14.464948,0.0274 z"
             id="path8"
             sodipodi:nodetypes="cccccccc" /><path
             style="display:inline;fill:#000000;fill-opacity:0.937759;stroke:none;stroke-width:0.1;stroke-linejoin:miter;stroke-dasharray:none;stroke-dashoffset:0;stroke-opacity:0.352697"
             d="m 4.2218481,120.7384 -0.00807,35.63143 10.1873269,-0.0888 -0.015,-26.92549 c 11.527541,8.8e-4 11.190648,-0.0635 13.652233,2.14285 2.461586,2.2061 2.012631,9.06402 2.095808,24.85126 l 9.764221,-0.0533 C 40.056598,132.0021 40.572976,129.1058 35.623682,124.46706 30.674389,119.82832 23.165765,120.625 4.2218505,120.73843 Z"
             id="path7"
             sodipodi:nodetypes="cccczcczcc" /></g></g></g></g></svg>
