<?xml version="1.0" encoding="UTF-8" standalone="no"?>
<!-- Created with Inkscape (http://www.inkscape.org/) -->

<svg
   width="85mm"
   height="55mm"
   viewBox="0 0 85 55"
   version="1.1"
   id="svg1"
   xml:space="preserve"
   inkscape:version="1.4 (86a8ad7, 2024-10-11)"
   sodipodi:docname="card1.svg"
   xmlns:inkscape="http://www.inkscape.org/namespaces/inkscape"
   xmlns:sodipodi="http://sodipodi.sourceforge.net/DTD/sodipodi-0.dtd"
   xmlns="http://www.w3.org/2000/svg"
   xmlns:svg="http://www.w3.org/2000/svg"><sodipodi:namedview
     id="namedview1"
     pagecolor="#505050"
     bordercolor="#eeeeee"
     borderopacity="1"
     inkscape:showpageshadow="0"
     inkscape:pageopacity="0"
     inkscape:pagecheckerboard="0"
     inkscape:deskcolor="#d1d1d1"
     inkscape:document-units="mm"
     inkscape:zoom="1.3761811"
     inkscape:cx="398.93005"
     inkscape:cy="99.187527"
     inkscape:window-width="1920"
     inkscape:window-height="1027"
     inkscape:window-x="-8"
     inkscape:window-y="-8"
     inkscape:window-maximized="1"
     inkscape:current-layer="g2"><inkscape:page
       x="0"
       y="0"
       width="84.999992"
       height="55.000004"
       id="page1"
       margin="5.0000005 5"
       bleed="5.0000005" /><inkscape:page
       x="112.30331"
       y="-0.1922591"
       width="84.999992"
       height="55.000004"
       id="page2"
       margin="5.0000005 5"
       bleed="5.0000005" /></sodipodi:namedview><defs
     id="defs1"><inkscape:path-effect
       effect="fillet_chamfer"
       id="path-effect1"
       is_visible="true"
       lpeversion="1"
       nodesatellites_param="F,0,0,1,0,3.1790202,0,1 @ F,0,0,1,0,0,0,1"
       radius="0"
       unit="px"
       method="auto"
       mode="F"
       chamfer_steps="1"
       flexible="false"
       use_knot_distance="true"
       apply_no_radius="true"
       apply_with_radius="true"
       only_selected="false"
       hide_knots="false" /></defs><g
     id="g4"
     inkscape:label="page1"><rect
       style="fill:#ffffff;fill-opacity:1;stroke:none;stroke-width:0.270859"
       id="rect3"
       width="94.861427"
       height="64.861435"
       x="-4.9968624"
       y="-4.8645706"
       ry="0"
       sodipodi:insensitive="true" /><g
       inkscape:groupmode="layer"
       inkscape:label="Printing Marks 0"
       id="printing-marks-0"
       sodipodi:insensitive="true"><g
         inkscape:label="CropMarks"
         id="CropMarks0"><path
           style="fill:none;stroke:#000000;stroke-width:0.25"
           id="cropTL1"
           d="M 0.0,-1.3229166666666667 L 0.0,-11.322916666666666" /><path
           style="fill:none;stroke:#000000;stroke-width:0.25"
           id="cropTL2"
           d="M -1.3229166666666667,0.0 L -11.322916666666666,0.0" /><path
           style="fill:none;stroke:#000000;stroke-width:0.25"
           id="cropTR1"
           d="M 84.999992,-1.3229166666666667 L 84.999992,-11.322916666666666" /><path
           style="fill:none;stroke:#000000;stroke-width:0.25"
           id="cropTR2"
           d="M 86.32290866666668,0.0 L 96.32290866666668,0.0" /><path
           style="fill:none;stroke:#000000;stroke-width:0.25"
           id="cropBL1"
           d="M 0.0,56.32292066666666 L 0.0,66.32292066666666" /><path
           style="fill:none;stroke:#000000;stroke-width:0.25"
           id="cropBL2"
           d="M -1.3229166666666667,55.000004 L -11.322916666666666,55.000004" /><path
           style="fill:none;stroke:#000000;stroke-width:0.25"
           id="cropBR1"
           d="M 84.999992,56.32292066666666 L 84.999992,66.32292066666666" /><path
           style="fill:none;stroke:#000000;stroke-width:0.25"
           id="cropBR2"
           d="M 86.32290866666668,55.000004 L 96.32290866666668,55.000004" /></g></g><g
       id="g1"
       transform="matrix(0.24528859,0,0,0.24528859,18.335994,9.4535654)"><g
         inkscape:label="Layer 1"
         id="layer1-8"
         style="display:inline"
         transform="translate(-4.2137775,-9.2965899)"><path
           id="rect2"
           style="display:inline;fill:#77b900;fill-opacity:1;stroke:none;stroke-width:0.350414;stroke-linejoin:miter;stroke-dasharray:none;stroke-dashoffset:0;stroke-opacity:0.352697"
           d="M 69.909945,9.2965902 V 22.068937 c 0.02888,-0.0044 29.911927,-4.575937 56.199675,26.47642 0.002,0.574219 -25.00777,29.589135 -49.418694,29.572355 -1.726836,-0.0012 -4.091238,-0.14921 -6.780981,-0.65629 v 7.996411 c 2.24243,0.29825 4.490077,0.404698 6.723104,0.314193 4.979017,-0.201803 26.200631,0.588475 55.820361,-26.235092 4.66589,3.019712 16.01811,8.773171 16.23777,9.806637 C 129.39197,85.01319 89.288807,94.582235 69.909945,92.889421 V 103.89495 H 159.49569 V 9.2965902 Z m 0,83.5928308 V 85.457833 C 54.524851,83.411569 39.401236,72.109129 31.173291,50.014518 46.603078,29.713096 69.790765,28.965256 69.909945,28.96154 v -6.892603 l -0.0052,5.17e-4 c 0,0 -24.884496,0.568956 -53.288737,26.477454 0,0 13.616453,40.222311 53.250496,44.340446 0.0136,0.0012 0.02979,8.77e-4 0.04341,0.0021 z m 0,-63.927881 v 8.588106 c 1.63602,-0.183015 3.113803,-0.285499 4.215246,-0.298173 3.994224,-0.04596 14.941167,0.36773 24.324614,11.609627 L 86.320829,59.142126 C 82.258298,53.485932 80.829237,46.100759 69.956453,44.90837 c -0.01454,-0.0016 -0.03191,-0.0015 -0.04651,-0.0031 V 70.811182 C 74.010639,72.266042 88.994227,76.593867 111.09451,48.94895 92.108893,25.373483 69.931132,28.959989 69.931132,28.959989 c 0,0 -0.02088,0.0015 -0.02119,0.0016 z m 0,41.849642 c -0.0094,-0.0033 -0.02789,-0.0081 -0.03721,-0.01137 C 59.154002,66.985394 55.503965,58.077987 53.641687,52.337891 60.552381,45.087478 66.21853,44.509782 69.909945,44.905269 v -7.355623 c -6.901496,0.772043 -17.866068,3.600417 -27.817424,13.434839 6.205924,18.980703 18.885808,24.793117 27.817424,26.476937 z" /></g><g
         id="layer4"
         inkscape:label="Text"
         transform="translate(-4.2137775,-9.2965899)"
         style="display:inline"><g
           id="g3"
           style="display:inline"><path
             id="path1"
             style="display:inline;fill:#000000;stroke:none;stroke-width:0.11708;stroke-dasharray:none;stroke-opacity:1"
             d="m 199.17707,147.07423 a 4.8318658,4.6834574 0 0 0 -4.83174,4.68343 4.8318658,4.6834574 0 0 0 4.83174,4.68344 4.8318658,4.6834574 0 0 0 4.83175,-4.68344 4.8318658,4.6834574 0 0 0 -4.83175,-4.68343 z m -0.0227,1.12293 a 3.4575963,3.5489252 0 0 1 3.45767,3.54913 3.4575963,3.5489252 0 0 1 -3.45767,3.54862 3.4575963,3.5489252 0 0 1 -3.45767,-3.54862 3.4575963,3.5489252 0 0 1 3.45767,-3.54913 z" /><path
             id="path2"
             style="display:inline;fill:#000000;fill-opacity:1;stroke:none;stroke-width:0.1;stroke-linecap:butt;stroke-linejoin:miter;stroke-dasharray:none;stroke-opacity:1"
             d="m 197.30483,149.24619 -0.0341,4.98884 1.10742,-0.0232 0.0114,-2.10065 0.47904,0.0119 1.233,2.1115 1.26763,5.2e-4 -1.3131,-2.19211 c 0.97396,-0.0582 1.23063,-0.61172 1.22163,-1.33584 -0.0197,-1.59244 -1.19496,-1.36209 -3.97289,-1.46089 z m 1.69189,0.83509 c 0.62257,-0.002 1.19652,0.0692 1.18494,0.64854 -0.0145,0.72557 -0.80124,0.54419 -1.79214,0.54828 l -0.0114,-1.18752 c 0.19849,-5e-4 0.41105,-0.009 0.61857,-0.009 z" /></g><g
           id="g12"
           transform="matrix(0.98942109,0,0,1.0000006,0.40987718,-1.6440031)"><path
             style="fill:#000000;fill-opacity:1;stroke:none;stroke-width:0.1;stroke-linejoin:miter;stroke-dasharray:none;stroke-dashoffset:0;stroke-opacity:0.352697"
             d="m 138.44695,120.76079 10.06227,-0.006 0.0323,35.65337 -10.08926,-0.0269 z"
             id="path9-4"
             sodipodi:nodetypes="ccccc" /><path
             style="fill:#000000;fill-opacity:1;stroke:none;stroke-width:0.1;stroke-linejoin:miter;stroke-dasharray:none;stroke-dashoffset:0;stroke-opacity:0.352697"
             d="m 83.184038,120.72809 10.062271,-0.006 0.03229,35.65337 -10.089257,-0.0269 z"
             id="path9"
             sodipodi:nodetypes="ccccc" /><path
             id="path10"
             style="fill:#000000;fill-opacity:1;stroke:none;stroke-width:0.1;stroke-linejoin:miter;stroke-dasharray:none;stroke-dashoffset:0;stroke-opacity:0.352697"
             d="m 107.09476,120.70788 c -2.28052,-0.002 -4.85737,0.004 -7.781959,0.009 l 0.0093,35.66914 c 17.002889,-0.61256 23.409249,1.6824 29.815749,-3.6313 6.19237,-5.1361 6.17942,-22.16526 0.16899,-27.41435 -4.79065,-4.18382 -6.2485,-4.61757 -22.21208,-4.63279 z m 3.86177,7.77678 c 7.9315,0.0418 8.38674,0.75217 10.79004,3.00189 2.85881,2.6761 3.30223,11.15039 -0.32297,14.66112 -2.77402,2.68641 -4.85417,2.58121 -12.10624,2.62981 l 0.002,-20.17241 -0.0517,-0.11989 c 0.59801,-0.003 1.16002,-0.003 1.68878,-5.2e-4 z" /><path
             id="path11"
             style="fill:#000000;fill-opacity:1;stroke:none;stroke-width:0.1;stroke-linejoin:miter;stroke-dasharray:none;stroke-dashoffset:0;stroke-opacity:0.352697"
             d="m 179.9854,120.80451 -13.35681,0.0227 -14.08751,35.50429 h 9.93221 l 2.21485,-6.30194 16.57573,0.0227 2.14664,6.30194 h 10.73061 z m -6.86677,6.46162 6.07353,16.63878 -12.34085,0.0171 z" /><path
             style="fill:#000000;fill-opacity:1;stroke:none;stroke-width:0.1;stroke-linejoin:miter;stroke-dasharray:none;stroke-dashoffset:0;stroke-opacity:0.352697"
             d="m 41.479245,120.78737 10.823395,0.0381 8.059733,28.09971 8.316594,-28.09775 10.302985,-0.0457 -11.581584,35.56671 -14.464948,0.0274 z"
             id="path8"
             sodipodi:nodetypes="cccccccc" /><path
             style="display:inline;fill:#000000;fill-opacity:0.937759;stroke:none;stroke-width:0.1;stroke-linejoin:miter;stroke-dasharray:none;stroke-dashoffset:0;stroke-opacity:0.352697"
             d="m 4.2218481,120.7384 -0.00807,35.63143 10.1873269,-0.0888 -0.015,-26.92549 c 11.527541,8.8e-4 11.190648,-0.0635 13.652233,2.14285 2.461586,2.2061 2.012631,9.06402 2.095808,24.85126 l 9.764221,-0.0533 C 40.056598,132.0021 40.572976,129.1058 35.623682,124.46706 30.674389,119.82832 23.165765,120.625 4.2218505,120.73843 Z"
             id="path7"
             sodipodi:nodetypes="cccczcczcc" /></g></g></g></g><g
     id="g5"
     inkscape:label="page2"><rect
       style="fill:#ffffff;fill-opacity:1;stroke:none;stroke-width:0.264859"
       id="rect4"
       width="95.135429"
       height="65"
       x="107.16788"
       y="-5.1922593"
       sodipodi:insensitive="true" /><g
       id="g2"
       transform="matrix(0.764867,0,0,0.764867,56.351244,4.5739267)"><text
         xml:space="preserve"
         style="font-style:normal;font-variant:normal;font-weight:normal;font-stretch:normal;font-size:4.15105px;line-height:1.25;font-family:SansSerif;-inkscape-font-specification:'SansSerif, Normal';font-variant-ligatures:normal;font-variant-caps:normal;font-variant-numeric:normal;font-variant-east-asian:normal;text-align:center;writing-mode:lr-tb;text-anchor:middle;fill:#000000;fill-opacity:1;stroke-width:0.264583"
         x="128.71069"
         y="6.4836688"
         id="text4"><tspan
           sodipodi:role="line"
           id="tspan4"
           style="font-style:normal;font-variant:normal;font-weight:normal;font-stretch:normal;font-size:4.15105px;font-family:SansSerif;-inkscape-font-specification:'SansSerif, Normal';font-variant-ligatures:normal;font-variant-caps:normal;font-variant-numeric:normal;font-variant-east-asian:normal;text-align:center;writing-mode:lr-tb;text-anchor:middle;fill:#000000;fill-opacity:1;stroke-width:0.264583"
           x="128.71069"
           y="6.4836688" /><tspan
           sodipodi:role="line"
           style="font-style:normal;font-variant:normal;font-weight:normal;font-stretch:normal;font-size:4.15105px;font-family:SansSerif;-inkscape-font-specification:'SansSerif, Normal';font-variant-ligatures:normal;font-variant-caps:normal;font-variant-numeric:normal;font-variant-east-asian:normal;text-align:center;writing-mode:lr-tb;text-anchor:middle;fill:#000000;fill-opacity:1;stroke-width:0.264583"
           x="128.71069"
           y="11.672482"
           id="tspan8" /><tspan
           sodipodi:role="line"
           style="font-style:normal;font-variant:normal;font-weight:normal;font-stretch:normal;font-size:4.15105px;font-family:SansSerif;-inkscape-font-specification:'SansSerif, Normal';font-variant-ligatures:normal;font-variant-caps:normal;font-variant-numeric:normal;font-variant-east-asian:normal;text-align:center;writing-mode:lr-tb;text-anchor:middle;fill:#000000;fill-opacity:1;stroke-width:0.264583"
           x="128.71069"
           y="16.861294"
           id="tspan10" /><tspan
           sodipodi:role="line"
           style="font-style:normal;font-variant:normal;font-weight:normal;font-stretch:normal;font-size:4.15105px;font-family:SansSerif;-inkscape-font-specification:'SansSerif, Normal';font-variant-ligatures:normal;font-variant-caps:normal;font-variant-numeric:normal;font-variant-east-asian:normal;text-align:center;writing-mode:lr-tb;text-anchor:middle;fill:#000000;fill-opacity:1;stroke-width:0.264583"
           x="128.71069"
           y="22.050106"
           id="tspan17">Branch Manager</tspan><tspan
           sodipodi:role="line"
           style="font-style:normal;font-variant:normal;font-weight:normal;font-stretch:normal;font-size:4.15105px;font-family:SansSerif;-inkscape-font-specification:'SansSerif, Normal';font-variant-ligatures:normal;font-variant-caps:normal;font-variant-numeric:normal;font-variant-east-asian:normal;text-align:center;writing-mode:lr-tb;text-anchor:middle;fill:#000000;fill-opacity:1;stroke-width:0.264583"
           x="128.71069"
           y="27.334269"
           id="tspan16">T: 040123456</tspan><tspan
           sodipodi:role="line"
           style="font-style:normal;font-variant:normal;font-weight:normal;font-stretch:normal;font-size:4.15105px;font-family:SansSerif;-inkscape-font-specification:'SansSerif, Normal';font-variant-ligatures:normal;font-variant-caps:normal;font-variant-numeric:normal;font-variant-east-asian:normal;text-align:center;writing-mode:lr-tb;text-anchor:middle;fill:#000000;fill-opacity:1;stroke-width:0.264583"
           x="128.71069"
           y="32.618431"
           id="tspan9">maj.kolman@nvidia.com</tspan><tspan
           sodipodi:role="line"
           style="font-style:normal;font-variant:normal;font-weight:normal;font-stretch:normal;font-size:4.15105px;font-family:SansSerif;-inkscape-font-specification:'SansSerif, Normal';font-variant-ligatures:normal;font-variant-caps:normal;font-variant-numeric:normal;font-variant-east-asian:normal;text-align:center;writing-mode:lr-tb;text-anchor:middle;fill:#000000;fill-opacity:1;stroke-width:0.264583"
           x="128.71069"
           y="37.902596"
           id="tspan12" /><tspan
           sodipodi:role="line"
           style="font-style:normal;font-variant:normal;font-weight:normal;font-stretch:normal;font-size:4.15105px;font-family:SansSerif;-inkscape-font-specification:'SansSerif, Normal';font-variant-ligatures:normal;font-variant-caps:normal;font-variant-numeric:normal;font-variant-east-asian:normal;text-align:center;writing-mode:lr-tb;text-anchor:middle;fill:#000000;fill-opacity:1;stroke-width:0.264583"
           x="128.71069"
           y="43.091408"
           id="tspan7" /><tspan
           sodipodi:role="line"
           style="font-style:normal;font-variant:normal;font-weight:normal;font-stretch:normal;font-size:4.15105px;font-family:SansSerif;-inkscape-font-specification:'SansSerif, Normal';font-variant-ligatures:normal;font-variant-caps:normal;font-variant-numeric:normal;font-variant-east-asian:normal;text-align:center;writing-mode:lr-tb;text-anchor:middle;fill:#000000;fill-opacity:1;stroke-width:0.264583"
           x="128.71069"
           y="48.28022"
           id="tspan5" /></text><text
         xml:space="preserve"
         style="font-style:normal;font-variant:normal;font-weight:bold;font-stretch:normal;font-size:5.53473px;line-height:1.25;font-family:Sans;-inkscape-font-specification:'Sans, Bold';font-variant-ligatures:normal;font-variant-caps:normal;font-variant-numeric:normal;font-variant-east-asian:normal;stroke-width:0.264583"
         x="110.23257"
         y="10.319356"
         id="text14"><tspan
           sodipodi:role="line"
           id="tspan14"
           style="font-style:normal;font-variant:normal;font-weight:bold;font-stretch:normal;font-size:5.53473px;font-family:Sans;-inkscape-font-specification:'Sans, Bold';font-variant-ligatures:normal;font-variant-caps:normal;font-variant-numeric:normal;font-variant-east-asian:normal;stroke-width:0.264583"
           x="110.23257"
           y="10.319356">Maj Kolman</tspan></text><text
         xml:space="preserve"
         style="font-style:normal;font-variant:normal;font-weight:normal;font-stretch:normal;font-size:4.15105px;line-height:1.25;font-family:SansSerif;-inkscape-font-specification:'SansSerif, Normal';font-variant-ligatures:normal;font-variant-caps:normal;font-variant-numeric:normal;font-variant-east-asian:normal;text-align:center;text-anchor:middle;stroke-width:0.264583"
         x="128.61314"
         y="42.392048"
         id="text3"><tspan
           sodipodi:role="line"
           id="tspan3"
           style="font-style:normal;font-variant:normal;font-weight:normal;font-stretch:normal;font-size:4.15105px;font-family:SansSerif;-inkscape-font-specification:'SansSerif, Normal';font-variant-ligatures:normal;font-variant-caps:normal;font-variant-numeric:normal;font-variant-east-asian:normal;text-align:center;text-anchor:middle;stroke-width:0.264583"
           x="128.61314"
           y="42.392048">Nvidia <tspan
   style="font-style:normal;font-variant:normal;font-weight:normal;font-stretch:normal;font-size:4.15105px;font-family:SansSerif;-inkscape-font-specification:'SansSerif, Normal';font-variant-ligatures:normal;font-variant-caps:normal;font-variant-numeric:normal;font-variant-east-asian:normal;text-align:center;text-anchor:middle"
   id="tspan13">Corporation</tspan></tspan><tspan
           sodipodi:role="line"
           style="font-style:normal;font-variant:normal;font-weight:normal;font-stretch:normal;font-size:4.15105px;font-family:SansSerif;-inkscape-font-specification:'SansSerif, Normal';font-variant-ligatures:normal;font-variant-caps:normal;font-variant-numeric:normal;font-variant-east-asian:normal;text-align:center;text-anchor:middle;stroke-width:0.264583"
           x="128.61314"
           y="47.676212"
           id="tspan6">Santa Clara, California, U.S</tspan><tspan
           sodipodi:role="line"
           style="font-style:normal;font-variant:normal;font-weight:normal;font-stretch:normal;font-size:4.15105px;font-family:SansSerif;-inkscape-font-specification:'SansSerif, Normal';font-variant-ligatures:normal;font-variant-caps:normal;font-variant-numeric:normal;font-variant-east-asian:normal;text-align:center;text-anchor:middle;stroke-width:0.264583"
           x="128.61314"
           y="52.960373"
           id="tspan15">www.nvidia.com</tspan></text></g><g
       inkscape:groupmode="layer"
       inkscape:label="Printing Marks 1"
       id="printing-marks-1"
       sodipodi:insensitive="true"><g
         inkscape:label="CropMarks"
         id="CropMarks1"><path
           style="fill:none;stroke:#000000;stroke-width:0.25"
           id="cropTL1-1"
           d="M 112.30331,-1.5151757666666668 L 112.30331,-11.515175766666667" /><path
           style="fill:none;stroke:#000000;stroke-width:0.25"
           id="cropTL2-1"
           d="M 110.98039333333332,-0.1922591 L 100.98039333333332,-0.1922591" /><path
           style="fill:none;stroke:#000000;stroke-width:0.25"
           id="cropTR1-1"
           d="M 197.303302,-1.5151757666666668 L 197.303302,-11.515175766666667" /><path
           style="fill:none;stroke:#000000;stroke-width:0.25"
           id="cropTR2-1"
           d="M 198.62621866666666,-0.1922591 L 208.62621866666666,-0.1922591" /><path
           style="fill:none;stroke:#000000;stroke-width:0.25"
           id="cropBL1-1"
           d="M 112.30331,56.13066156666666 L 112.30331,66.13066156666666" /><path
           style="fill:none;stroke:#000000;stroke-width:0.25"
           id="cropBL2-1"
           d="M 110.98039333333332,54.807744899999996 L 100.98039333333332,54.807744899999996" /><path
           style="fill:none;stroke:#000000;stroke-width:0.25"
           id="cropBR1-1"
           d="M 197.303302,56.13066156666666 L 197.303302,66.13066156666666" /><path
           style="fill:none;stroke:#000000;stroke-width:0.25"
           id="cropBR2-1"
           d="M 198.62621866666666,54.807744899999996 L 208.62621866666666,54.807744899999996" /></g></g></g></svg>
