<?xml version="1.0" encoding="UTF-8" standalone="no"?>
<!-- Created with Inkscape (http://www.inkscape.org/) -->

<svg
   width="480"
   height="480"
   viewBox="0 0 127 127"
   version="1.1"
   id="svg1"
   inkscape:version="1.4 (86a8ad7, 2024-10-11)"
   sodipodi:docname="drawing-1.svg"
   inkscape:export-batch-path="C:\Users\Maj\Desktop\Git repo\CV\School projects\3 - Osnove oblikovanja\Assignment 2\Animation 1"
   inkscape:export-batch-name="batch"
   xmlns:inkscape="http://www.inkscape.org/namespaces/inkscape"
   xmlns:sodipodi="http://sodipodi.sourceforge.net/DTD/sodipodi-0.dtd"
   xmlns="http://www.w3.org/2000/svg"
   xmlns:svg="http://www.w3.org/2000/svg">
  <sodipodi:namedview
     id="namedview1"
     pagecolor="#505050"
     bordercolor="#eeeeee"
     borderopacity="1"
     inkscape:showpageshadow="0"
     inkscape:pageopacity="0"
     inkscape:pagecheckerboard="0"
     inkscape:deskcolor="#d1d1d1"
     inkscape:document-units="mm"
     inkscape:zoom="1.68"
     inkscape:cx="242.85714"
     inkscape:cy="238.9881"
     inkscape:window-width="1920"
     inkscape:window-height="1027"
     inkscape:window-x="-8"
     inkscape:window-y="-8"
     inkscape:window-maximized="1"
     inkscape:current-layer="g18" />
  <defs
     id="defs1">
    <linearGradient
       id="swatch20"
       inkscape:swatch="solid">
      <stop
         style="stop-color:#01e1f0;stop-opacity:0.60784296;"
         offset="0"
         id="stop20" />
    </linearGradient>
  </defs>
  <g
     inkscape:label="BG"
     inkscape:groupmode="layer"
     id="layer1"
     sodipodi:insensitive="true">
    <rect
       style="fill:#000000;fill-opacity:1;stroke:#000000;stroke-width:0.1"
       id="rect2"
       width="127"
       height="127"
       x="0"
       y="0" />
  </g>
  <g
     inkscape:groupmode="layer"
     id="g8"
     inkscape:label="Frame 1"
     style="display:inline">
    <rect
       style="display:inline;opacity:1;fill:#01e1f0;fill-opacity:1;stroke:#000000;stroke-width:0.05"
       id="rect26"
       width="63.5"
       height="63.5"
       x="31.75"
       y="31.75" />
  </g>
  <g
     inkscape:groupmode="layer"
     id="g6"
     inkscape:label="Frame 2"
     style="display:inline;mix-blend-mode:normal">
    <rect
       style="display:inline;mix-blend-mode:normal;opacity:1;fill:#f06100;fill-opacity:1;stroke:#000000;stroke-width:0.05"
       id="rect8"
       width="63.5"
       height="63.5"
       x="31.75"
       y="31.75" />
    <path
       id="rect6"
       style="opacity:1;fill:#01e1f0;fill-opacity:1;stroke:#000000;stroke-width:0.05"
       d="m 31.75,31.75 v 63.5 h 63.5 V 31.75 Z M 63.5,62.956364 A 0.54377681,0.54377687 0 0 1 64.043636,63.5 0.54377681,0.54377687 0 0 1 63.5,64.043636 0.54377681,0.54377687 0 0 1 62.956364,63.5 0.54377681,0.54377687 0 0 1 63.5,62.956364 Z" />
  </g>
  <g
     inkscape:groupmode="layer"
     id="g9"
     inkscape:label="Frame 3"
     style="display:inline">
    <rect
       style="display:inline;opacity:1;fill:#f06100;fill-opacity:1;stroke:#000000;stroke-width:0.05"
       id="rect21"
       width="63.5"
       height="63.5"
       x="31.75"
       y="31.75" />
    <path
       id="rect9"
       style="opacity:1;fill:#01e1f0;fill-opacity:1;stroke:#000000;stroke-width:0.05"
       d="m 31.75,31.75 v 63.5 h 63.5 V 31.75 Z M 63.5,62.486108 A 1.0140933,1.0140933 0 0 1 64.513892,63.5 1.0140933,1.0140933 0 0 1 63.5,64.513892 1.0140933,1.0140933 0 0 1 62.486108,63.5 1.0140933,1.0140933 0 0 1 63.5,62.486108 Z" />
  </g>
  <g
     inkscape:groupmode="layer"
     id="g10"
     inkscape:label="Frame 4"
     style="display:inline">
    <rect
       style="display:inline;opacity:1;fill:#f06100;fill-opacity:1;stroke:#000000;stroke-width:0.05"
       id="rect22"
       width="63.5"
       height="63.5"
       x="31.75"
       y="31.75" />
    <path
       id="rect10"
       style="opacity:1;fill:#01e1f0;fill-opacity:1;stroke:#000000;stroke-width:0.05"
       d="m 31.75,31.75 v 63.5 h 63.5 V 31.75 Z M 63.5,61.074825 A 2.4250426,2.4250426 0 0 1 65.925175,63.5 2.4250426,2.4250426 0 0 1 63.5,65.925175 2.4250426,2.4250426 0 0 1 61.074825,63.5 2.4250426,2.4250426 0 0 1 63.5,61.074825 Z" />
  </g>
  <g
     inkscape:groupmode="layer"
     id="g11"
     inkscape:label="Frame 5"
     style="display:inline">
    <rect
       style="display:inline;opacity:1;fill:#f06100;fill-opacity:1;stroke:#000000;stroke-width:0.05"
       id="rect23"
       width="63.5"
       height="63.5"
       x="31.75"
       y="31.75" />
    <path
       id="rect11"
       style="opacity:1;fill:#01e1f0;fill-opacity:1;stroke:#000000;stroke-width:0.05"
       d="m 31.75,31.75 v 63.5 h 63.5 V 31.75 Z M 63.5,59.507479 A 3.9927642,3.9927642 0 0 1 67.492521,63.5 3.9927642,3.9927642 0 0 1 63.5,67.492521 3.9927642,3.9927642 0 0 1 59.507479,63.5 3.9927642,3.9927642 0 0 1 63.5,59.507479 Z" />
  </g>
  <g
     inkscape:groupmode="layer"
     id="g12"
     inkscape:label="Frame 6"
     style="display:inline">
    <rect
       style="display:inline;opacity:1;fill:#f06100;fill-opacity:1;stroke:#000000;stroke-width:0.05"
       id="rect24"
       width="63.5"
       height="63.5"
       x="31.75"
       y="31.75" />
    <path
       id="rect12"
       style="opacity:1;fill:#01e1f0;fill-opacity:1;stroke:#000000;stroke-width:0.05"
       d="m 31.75,31.75 v 63.5 h 63.5 V 31.75 Z M 63.5,56.058077 A 7.4417515,7.4417515 0 0 1 70.941923,63.5 7.4417515,7.4417515 0 0 1 63.5,70.941923 7.4417515,7.4417515 0 0 1 56.058077,63.5 7.4417515,7.4417515 0 0 1 63.5,56.058077 Z" />
  </g>
  <g
     inkscape:groupmode="layer"
     id="g13"
     inkscape:label="Frame 7"
     style="display:inline">
    <rect
       style="display:inline;opacity:1;fill:#f06100;fill-opacity:1;stroke:#000000;stroke-width:0.05"
       id="rect25"
       width="63.5"
       height="63.5"
       x="31.75"
       y="31.75" />
    <path
       id="rect13"
       style="opacity:1;fill:#01e1f0;fill-opacity:1;stroke:#000000;stroke-width:0.05"
       d="m 31.75,31.75 v 63.5 h 63.5 V 31.75 Z M 63.5,48.532955 A 14.966815,14.966815 0 0 1 78.467045,63.5 14.966815,14.966815 0 0 1 63.5,78.467045 14.966815,14.966815 0 0 1 48.532955,63.5 14.966815,14.966815 0 0 1 63.5,48.532955 Z" />
  </g>
  <g
     inkscape:groupmode="layer"
     id="g14"
     inkscape:label="Frame 8"
     style="display:inline;mix-blend-mode:normal">
    <rect
       style="display:inline;opacity:1;fill:#01e1f0;fill-opacity:1;stroke:#000000;stroke-width:0.05"
       id="rect20"
       width="63.5"
       height="63.5"
       x="31.75"
       y="31.75" />
    <path
       id="rect14"
       style="display:inline;opacity:1;fill:#f06100;fill-opacity:1;stroke:#000000;stroke-width:0.05"
       d="m 31.75,31.75 v 63.5 h 63.5 V 31.75 Z M 63.5,48.532955 A 14.966815,14.966815 0 0 1 78.467045,63.5 14.966815,14.966815 0 0 1 63.5,78.467045 14.966815,14.966815 0 0 1 48.532955,63.5 14.966815,14.966815 0 0 1 63.5,48.532955 Z" />
  </g>
  <g
     inkscape:groupmode="layer"
     id="g15"
     inkscape:label="Frame 9"
     style="display:inline"
     sodipodi:insensitive="true">
    <rect
       style="display:inline;mix-blend-mode:normal;opacity:1;fill:#01e1f0;fill-opacity:1;stroke:#000000;stroke-width:0.05"
       id="rect27"
       width="63.5"
       height="63.5"
       x="31.75"
       y="31.75" />
    <path
       id="rect15"
       style="opacity:1;fill:#f06100;fill-opacity:1;stroke:#000000;stroke-width:0.05"
       d="m 31.75,31.75 v 63.5 h 63.5 V 31.75 Z M 63.5,40.537577 A 22.962194,22.962194 0 0 1 86.462423,63.5 22.962194,22.962194 0 0 1 63.5,86.462423 22.962194,22.962194 0 0 1 40.537577,63.5 22.962194,22.962194 0 0 1 63.5,40.537577 Z" />
  </g>
  <g
     inkscape:groupmode="layer"
     id="g16"
     inkscape:label="Frame 10"
     style="display:inline"
     sodipodi:insensitive="true">
    <rect
       style="display:inline;mix-blend-mode:normal;opacity:1;fill:#01e1f0;fill-opacity:1;stroke:#000000;stroke-width:0.05"
       id="rect28"
       width="63.5"
       height="63.5"
       x="31.75"
       y="31.75" />
    <path
       id="rect16"
       style="opacity:1;fill:#f06100;fill-opacity:1;stroke:#000000;stroke-width:0.05"
       d="m 31.75,31.75 v 63.5 h 63.5 V 31.75 Z M 63.5,35.521346 A 27.978903,27.978903 0 0 1 91.478654,63.5 27.978903,27.978903 0 0 1 63.5,91.478654 27.978903,27.978903 0 0 1 35.521346,63.5 27.978903,27.978903 0 0 1 63.5,35.521346 Z" />
  </g>
  <g
     inkscape:groupmode="layer"
     id="g17"
     inkscape:label="Frame 11"
     style="display:inline"
     sodipodi:insensitive="true">
    <rect
       style="display:inline;mix-blend-mode:normal;opacity:1;fill:#01e1f0;fill-opacity:1;stroke:#000000;stroke-width:0.05"
       id="rect29"
       width="63.5"
       height="63.5"
       x="31.75"
       y="31.75" />
    <path
       id="rect16-5"
       style="display:inline;opacity:1;fill:#f06100;fill-opacity:1;stroke:#000000;stroke-width:0.05"
       d="M 31.75,31.75 V 46.446777 A 36.131054,36.131054 0 0 1 46.446777,31.75 Z m 48.984607,0 A 36.131054,36.131054 0 0 1 95.25,46.265393 V 31.75 Z M 31.75,80.553223 V 95.25 H 46.446777 A 36.131054,36.131054 0 0 1 31.75,80.553223 Z m 63.5,0 A 36.131054,36.131054 0 0 1 80.553223,95.25 H 95.25 Z" />
  </g>
  <g
     inkscape:groupmode="layer"
     id="g18"
     inkscape:label="Frame 12"
     style="display:inline"
     sodipodi:insensitive="true">
    <rect
       style="display:inline;opacity:1;fill:#f06100;fill-opacity:1;stroke:#000000;stroke-width:0.05"
       id="rect19"
       width="63.5"
       height="63.5"
       x="31.75"
       y="31.75" />
    <path
       id="rect18"
       style="opacity:1;fill:#01e1f0;fill-opacity:1;stroke:#000000;stroke-width:0.05"
       d="m 31.75,31.75 v 63.5 h 63.5 v -63.5 z" />
  </g>
</svg>
