<?xml version="1.0" encoding="UTF-8" standalone="no"?>
<!-- Created with Inkscape (http://www.inkscape.org/) -->

<svg
   width="480"
   height="480"
   viewBox="0 0 127 127"
   version="1.1"
   id="svg1"
   inkscape:export-batch-path="C:\Users\Maj\Desktop\Git repo\CV\School projects\3 - Osnove oblikovanja\Assignment 2\Animation 2 - nadaljevanje-crt_"
   inkscape:export-batch-name="batch"
   inkscape:version="1.4 (86a8ad7, 2024-10-11)"
   sodipodi:docname="drawing.svg"
   xmlns:inkscape="http://www.inkscape.org/namespaces/inkscape"
   xmlns:sodipodi="http://sodipodi.sourceforge.net/DTD/sodipodi-0.dtd"
   xmlns="http://www.w3.org/2000/svg"
   xmlns:svg="http://www.w3.org/2000/svg">
  <sodipodi:namedview
     id="namedview1"
     pagecolor="#505050"
     bordercolor="#eeeeee"
     borderopacity="1"
     inkscape:showpageshadow="0"
     inkscape:pageopacity="0"
     inkscape:pagecheckerboard="0"
     inkscape:deskcolor="#d1d1d1"
     inkscape:document-units="mm"
     inkscape:zoom="1.48"
     inkscape:cx="256.41892"
     inkscape:cy="253.04054"
     inkscape:window-width="1920"
     inkscape:window-height="1027"
     inkscape:window-x="-8"
     inkscape:window-y="-8"
     inkscape:window-maximized="1"
     inkscape:current-layer="g37" />
  <defs
     id="defs1" />
  <g
     inkscape:label="Layer 1"
     inkscape:groupmode="layer"
     id="layer1">
    <rect
       style="fill:#ffffff;stroke:#000000;stroke-width:0.1;fill-opacity:1;opacity:0.5"
       id="rect1"
       width="127"
       height="127"
       x="0"
       y="0" />
    <path
       style="fill:none;stroke:#b587d5;stroke-width:2.64583333;stroke-linecap:round;stroke-linejoin:round;stroke-opacity:1;stroke-dasharray:none"
       d="m -0.08146474,31.75 c 31.79073174,0 63.58146374,0 63.58146374,31.749999 0,31.749999 31.79897,31.75 63.597941,31.75"
       id="path10"
       sodipodi:nodetypes="czc"
       inkscape:label="path10" />
    <path
       style="display:inline;fill:none;stroke:#864faa;stroke-width:2.64583;stroke-linecap:round;stroke-linejoin:round;stroke-dasharray:none;stroke-opacity:1"
       d="m 127.09794,31.75 c -31.790732,0 -63.581464,0 -63.581464,31.749999 0,31.749999 -31.79897,31.75 -63.59794074,31.75"
       id="path11"
       sodipodi:nodetypes="czc" />
  </g>
  <g
     inkscape:label="Layer 2"
     inkscape:groupmode="layer"
     id="g18">
    <rect
       style="fill:#ffffff;stroke:#000000;stroke-width:0.1;fill-opacity:1;opacity:0.5"
       id="rect17"
       width="127"
       height="127"
       x="0"
       y="0" />
    <path
       style="fill:none;stroke:#b587d5;stroke-width:2.64583;stroke-linecap:round;stroke-linejoin:round;stroke-dasharray:none;stroke-opacity:1"
       d="m -0.08146474,37.113176 c 31.79073174,0 63.58146374,4.469313 63.58146374,26.386823 0,21.91751 31.798975,26.923142 63.597941,26.923142"
       id="path17"
       sodipodi:nodetypes="czc"
       inkscape:label="path10" />
    <path
       style="display:inline;fill:none;stroke:#864faa;stroke-width:2.64583;stroke-linecap:round;stroke-linejoin:round;stroke-dasharray:none;stroke-opacity:1"
       d="m 127.09794,37.113176 c -31.790732,0 -63.597941,4.469313 -63.597941,26.386823 0,21.91751 -31.782498,26.744369 -63.58146374,26.744369"
       id="path18"
       sodipodi:nodetypes="czc"
       inkscape:label="path10" />
  </g>
  <g
     inkscape:label="Layer 3"
     inkscape:groupmode="layer"
     id="g20">
    <rect
       style="fill:#ffffff;stroke:#000000;stroke-width:0.1;fill-opacity:1;opacity:0.5"
       id="rect18"
       width="127"
       height="127"
       x="0"
       y="0" />
    <path
       style="fill:none;stroke:#b587d5;stroke-width:2.64583;stroke-linecap:round;stroke-linejoin:round;stroke-dasharray:none;stroke-opacity:1"
       d="M -0.08146474,42.655124 C 31.709267,42.655124 63.49176,50.87866 63.499999,63.499999 63.508238,76.121338 95.201034,84.881193 127,84.881193"
       id="path19"
       sodipodi:nodetypes="czc"
       inkscape:label="path10" />
    <path
       style="fill:none;stroke:#864faa;stroke-width:2.64583;stroke-linecap:round;stroke-linejoin:round;stroke-dasharray:none;stroke-opacity:1"
       d="m 127,42.655124 c -31.790732,0 -63.573225,8.223536 -63.581464,20.844875 -0.0082,12.621339 -31.701035,21.381194 -63.50000074,21.381194"
       id="path20"
       sodipodi:nodetypes="czc"
       inkscape:label="path10" />
  </g>
  <g
     inkscape:label="Layer 4"
     inkscape:groupmode="layer"
     id="g22">
    <rect
       style="fill:#ffffff;stroke:#000000;stroke-width:0.1;fill-opacity:1;opacity:0.5"
       id="rect20"
       width="127"
       height="127"
       x="0"
       y="0" />
    <path
       style="fill:none;stroke:#b587d5;stroke-width:2.64583;stroke-linecap:round;stroke-linejoin:round;stroke-dasharray:none;stroke-opacity:1"
       d="m 0,48.912162 c 31.790732,0 63.5,8.581081 63.499999,14.587837 -1e-6,6.006756 31.701035,15.839246 63.500001,15.839246"
       id="path21"
       sodipodi:nodetypes="czc"
       inkscape:label="path10" />
    <path
       style="fill:none;stroke:#864faa;stroke-width:2.64583;stroke-linecap:round;stroke-linejoin:round;stroke-dasharray:none;stroke-opacity:1"
       d="m 127,48.912162 c -31.790732,0 -63.5,8.581081 -63.499999,14.587837 C 63.500002,69.506755 31.798966,79.339245 0,79.339245"
       id="path22"
       sodipodi:nodetypes="czc"
       inkscape:label="path10" />
  </g>
  <g
     inkscape:label="Layer 5"
     inkscape:groupmode="layer"
     id="g24"
     style="display:inline">
    <rect
       style="opacity:0.5;fill:#ffffff;fill-opacity:1;stroke:#000000;stroke-width:0.1"
       id="rect22"
       width="127"
       height="127"
       x="0"
       y="0" />
    <path
       style="fill:none;stroke:#b587d5;stroke-width:2.64583;stroke-linecap:round;stroke-linejoin:round;stroke-dasharray:none;stroke-opacity:1"
       d="m 0,54.45411 c 31.790732,0 63.499998,5.541948 63.499999,9.045889 C 63.5,67.00394 95.201034,72.724662 127,72.724662"
       id="path23"
       sodipodi:nodetypes="czc"
       inkscape:label="path10" />
    <path
       style="fill:none;fill-opacity:1;stroke:#864faa;stroke-width:2.64583;stroke-linecap:round;stroke-linejoin:round;stroke-dasharray:none;stroke-opacity:1"
       d="m 0,72.724662 c 31.790732,0 63.499998,-5.541948 63.499999,-9.045889 C 63.5,60.174832 95.201034,54.45411 127,54.45411"
       id="path24"
       sodipodi:nodetypes="czc"
       inkscape:label="path10" />
  </g>
  <g
     inkscape:label="Layer 6"
     inkscape:groupmode="layer"
     id="g26"
     style="display:inline">
    <rect
       style="opacity:0.5;fill:#ffffff;fill-opacity:1;stroke:#000000;stroke-width:0.1"
       id="rect24"
       width="127"
       height="127"
       x="0"
       y="0" />
    <path
       style="fill:none;stroke:#b587d5;stroke-width:2.64583;stroke-linecap:round;stroke-linejoin:round;stroke-dasharray:none;stroke-opacity:1"
       d="m 0,59.817286 c 55.320641,0 75.086235,7.722973 127,7.722973"
       id="path25"
       sodipodi:nodetypes="cc"
       inkscape:label="path10" />
    <path
       style="fill:none;stroke:#864faa;stroke-width:2.64583;stroke-linecap:round;stroke-linejoin:round;stroke-dasharray:none;stroke-opacity:1"
       d="m 127,59.817286 c -55.320641,0 -75.086235,7.722973 -127,7.722973"
       id="path26"
       sodipodi:nodetypes="cc"
       inkscape:label="path10" />
  </g>
  <g
     inkscape:label="Layer 7"
     inkscape:groupmode="layer"
     id="g29"
     style="display:inline">
    <rect
       style="opacity:0.5;fill:#ffffff;fill-opacity:1;stroke:#000000;stroke-width:0.1"
       id="rect28"
       width="127"
       height="127"
       x="0"
       y="0" />
    <path
       style="fill:none;stroke:#864faa;stroke-width:2.64583;stroke-linecap:round;stroke-linejoin:round;stroke-dasharray:none;stroke-opacity:1"
       d="m 0,59.817286 c 55.320641,0 75.086235,7.722973 127,7.722973"
       id="path28"
       sodipodi:nodetypes="cc"
       inkscape:label="path10" />
    <path
       style="fill:none;stroke:#b587d5;stroke-width:2.64583;stroke-linecap:round;stroke-linejoin:round;stroke-dasharray:none;stroke-opacity:1"
       d="m 127,59.817286 c -55.320641,0 -75.086235,7.722973 -127,7.722973"
       id="path29"
       sodipodi:nodetypes="cc"
       inkscape:label="path10" />
  </g>
  <g
     inkscape:label="Layer 8"
     inkscape:groupmode="layer"
     id="g31"
     style="display:inline">
    <rect
       style="opacity:0.5;fill:#ffffff;fill-opacity:1;stroke:#000000;stroke-width:0.1"
       id="rect29"
       width="127"
       height="127"
       x="0"
       y="0" />
    <path
       style="fill:none;stroke:#864faa;stroke-width:2.64583;stroke-linecap:round;stroke-linejoin:round;stroke-dasharray:none;stroke-opacity:1"
       d="m 0,54.45411 c 31.790732,0 63.499998,5.541948 63.499999,9.045889 C 63.5,67.00394 95.201034,72.724662 127,72.724662"
       id="path30"
       sodipodi:nodetypes="czc"
       inkscape:label="path10" />
    <path
       style="fill:none;fill-opacity:1;stroke:#b587d5;stroke-width:2.64583;stroke-linecap:round;stroke-linejoin:round;stroke-dasharray:none;stroke-opacity:1"
       d="m 0,72.724662 c 31.790732,0 63.499998,-5.541948 63.499999,-9.045889 C 63.5,60.174832 95.201034,54.45411 127,54.45411"
       id="path31"
       sodipodi:nodetypes="czc"
       inkscape:label="path10" />
  </g>
  <g
     inkscape:label="Layer 9"
     inkscape:groupmode="layer"
     id="g33">
    <rect
       style="fill:#ffffff;stroke:#000000;stroke-width:0.1;fill-opacity:1;opacity:0.5"
       id="rect31"
       width="127"
       height="127"
       x="0"
       y="0" />
    <path
       style="fill:none;stroke:#864faa;stroke-width:2.64583;stroke-linecap:round;stroke-linejoin:round;stroke-dasharray:none;stroke-opacity:1"
       d="m 0,48.912162 c 31.790732,0 63.5,8.581081 63.499999,14.587837 -1e-6,6.006756 31.701035,15.839246 63.500001,15.839246"
       id="path32"
       sodipodi:nodetypes="czc"
       inkscape:label="path10" />
    <path
       style="fill:none;stroke:#b587d5;stroke-width:2.64583;stroke-linecap:round;stroke-linejoin:round;stroke-dasharray:none;stroke-opacity:1"
       d="m 127,48.912162 c -31.790732,0 -63.5,8.581081 -63.499999,14.587837 C 63.500002,69.506755 31.798966,79.339245 0,79.339245"
       id="path33"
       sodipodi:nodetypes="czc"
       inkscape:label="path10" />
  </g>
  <g
     inkscape:label="Layer 10"
     inkscape:groupmode="layer"
     id="g35">
    <rect
       style="fill:#ffffff;stroke:#000000;stroke-width:0.1;fill-opacity:1;opacity:0.5"
       id="rect33"
       width="127"
       height="127"
       x="0"
       y="0" />
    <path
       style="fill:none;stroke:#864faa;stroke-width:2.64583;stroke-linecap:round;stroke-linejoin:round;stroke-dasharray:none;stroke-opacity:1"
       d="M -0.08146474,42.655124 C 31.709267,42.655124 63.49176,50.87866 63.499999,63.499999 63.508238,76.121338 95.201034,84.881193 127,84.881193"
       id="path34"
       sodipodi:nodetypes="czc"
       inkscape:label="path10" />
    <path
       style="fill:none;stroke:#b587d5;stroke-width:2.64583;stroke-linecap:round;stroke-linejoin:round;stroke-dasharray:none;stroke-opacity:1"
       d="m 127,42.655124 c -31.790732,0 -63.573225,8.223536 -63.581464,20.844875 -0.0082,12.621339 -31.701035,21.381194 -63.50000074,21.381194"
       id="path35"
       sodipodi:nodetypes="czc"
       inkscape:label="path10" />
  </g>
  <g
     inkscape:label="Layer 11"
     inkscape:groupmode="layer"
     id="g37">
    <rect
       style="fill:#ffffff;stroke:#000000;stroke-width:0.1;fill-opacity:1;opacity:0.5"
       id="rect35"
       width="127"
       height="127"
       x="0"
       y="0" />
    <path
       style="fill:none;stroke:#864faa;stroke-width:2.64583;stroke-linecap:round;stroke-linejoin:round;stroke-dasharray:none;stroke-opacity:1"
       d="m -0.08146474,37.113176 c 31.79073174,0 63.58146374,4.469313 63.58146374,26.386823 0,21.91751 31.798975,26.923142 63.597941,26.923142"
       id="path36"
       sodipodi:nodetypes="czc"
       inkscape:label="path10" />
    <path
       style="display:inline;fill:none;stroke:#b587d5;stroke-width:2.64583;stroke-linecap:round;stroke-linejoin:round;stroke-dasharray:none;stroke-opacity:1"
       d="m 127.09794,37.113176 c -31.790732,0 -63.597941,4.469313 -63.597941,26.386823 0,21.91751 -31.782498,26.744369 -63.58146374,26.744369"
       id="path37"
       sodipodi:nodetypes="czc"
       inkscape:label="path10" />
  </g>
  <g
     inkscape:label="Layer 12"
     inkscape:groupmode="layer"
     id="g39">
    <rect
       style="fill:#ffffff;stroke:#000000;stroke-width:0.1;fill-opacity:1;opacity:0.5"
       id="rect37"
       width="127"
       height="127"
       x="0"
       y="0" />
    <path
       style="fill:none;stroke:#864faa;stroke-width:2.64583333;stroke-linecap:round;stroke-linejoin:round;stroke-opacity:1;stroke-dasharray:none"
       d="m -0.08146474,31.75 c 31.79073174,0 63.58146374,0 63.58146374,31.749999 0,31.749999 31.79897,31.75 63.597941,31.75"
       id="path38"
       sodipodi:nodetypes="czc"
       inkscape:label="path10" />
    <path
       style="display:inline;fill:none;stroke:#b587d5;stroke-width:2.64583;stroke-linecap:round;stroke-linejoin:round;stroke-dasharray:none;stroke-opacity:1"
       d="m 127.09794,31.75 c -31.790732,0 -63.581464,0 -63.581464,31.749999 0,31.749999 -31.79897,31.75 -63.59794074,31.75"
       id="path39"
       sodipodi:nodetypes="czc" />
  </g>
  <g
     inkscape:groupmode="layer"
     id="layer2"
     inkscape:label="BG"
     style="display:inline"
     sodipodi:insensitive="true">
    <path
       style="fill:none;stroke:#000000;stroke-width:0.264583px;stroke-linecap:butt;stroke-linejoin:miter;stroke-opacity:1"
       d="M 0,63.499999 H 127"
       id="path2" />
    <path
       style="fill:none;stroke:#000000;stroke-width:0.264583px;stroke-linecap:butt;stroke-linejoin:miter;stroke-opacity:1"
       d="M 63.499999,63.499999 V 0"
       id="path3" />
    <path
       style="fill:none;stroke:#000000;stroke-width:0.264583px;stroke-linecap:butt;stroke-linejoin:miter;stroke-opacity:1"
       d="M 127.09794,31.75 H 63.499999 -0.08146474"
       id="path4" />
    <path
       style="fill:none;stroke:#000000;stroke-width:0.264583px;stroke-linecap:butt;stroke-linejoin:miter;stroke-opacity:1"
       d="M 63.499999,63.499999 V 127"
       id="path5" />
    <path
       style="fill:none;stroke:#000000;stroke-width:0.264583px;stroke-linecap:butt;stroke-linejoin:miter;stroke-opacity:1"
       d="M 127.09794,95.249999 H 63.499999 l -79.231981,10e-7"
       id="path6" />
  </g>
</svg>
