<?xml version="1.0" encoding="UTF-8" standalone="no"?>
<!-- Created with Inkscape (http://www.inkscape.org/) -->

<svg
   width="480"
   height="480"
   viewBox="0 0 127 127"
   version="1.1"
   id="svg1"
   inkscape:version="1.4 (86a8ad7, 2024-10-11)"
   sodipodi:docname="drawing.svg"
   inkscape:export-batch-path="C:\Users\Maj\Desktop\Git repo\CV\School projects\3 - Osnove oblikovanja\Assignment 2\Animation 10 - figura-in-ozadje_nasicensot-in-svetlost"
   inkscape:export-batch-name="drawing"
   xmlns:inkscape="http://www.inkscape.org/namespaces/inkscape"
   xmlns:sodipodi="http://sodipodi.sourceforge.net/DTD/sodipodi-0.dtd"
   xmlns="http://www.w3.org/2000/svg"
   xmlns:svg="http://www.w3.org/2000/svg">
  <sodipodi:namedview
     id="namedview1"
     pagecolor="#505050"
     bordercolor="#eeeeee"
     borderopacity="1"
     inkscape:showpageshadow="0"
     inkscape:pageopacity="0"
     inkscape:pagecheckerboard="0"
     inkscape:deskcolor="#d1d1d1"
     inkscape:document-units="mm"
     inkscape:zoom="1.4699074"
     inkscape:cx="267.36378"
     inkscape:cy="223.48347"
     inkscape:window-width="1920"
     inkscape:window-height="1027"
     inkscape:window-x="-8"
     inkscape:window-y="-8"
     inkscape:window-maximized="1"
     inkscape:current-layer="g184" />
  <defs
     id="defs1" />
  <g
     inkscape:label="0"
     inkscape:groupmode="layer"
     id="layer1">
    <rect
       style="fill:#ffffff;fill-opacity:1;stroke-width:0.264583;stroke-linejoin:round;opacity:0.5"
       id="rect1"
       width="127"
       height="127"
       x="0"
       y="0"
       sodipodi:insensitive="true" />
    <circle
       style="fill:#3a5b5c;fill-opacity:1;stroke-width:0.201527;stroke-linejoin:round"
       id="path4"
       cx="31.75"
       cy="95.25"
       r="7.5" />
    <circle
       style="fill:#3a5b5c;fill-opacity:1;stroke-width:0.201527;stroke-linejoin:round"
       id="circle5"
       cx="95.25"
       cy="95.25"
       r="7.5" />
    <circle
       style="fill:#3a5b5c;fill-opacity:1;stroke-width:0.201527;stroke-linejoin:round"
       id="circle6"
       cx="95.25"
       cy="31.75"
       r="7.5" />
    <circle
       style="fill:#3a5b5c;fill-opacity:1;stroke-width:0.201527;stroke-linejoin:round"
       id="circle7"
       cx="31.75"
       cy="31.75"
       r="7.5" />
    <circle
       style="fill:#3a5b5c;fill-opacity:1;stroke-width:0.201527;stroke-linejoin:round"
       id="circle8"
       cx="63.5"
       cy="31.75"
       r="7.5" />
    <circle
       style="fill:#3a5b5c;fill-opacity:1;stroke-width:0.201527;stroke-linejoin:round"
       id="circle9"
       cx="31.75"
       cy="63.5"
       r="7.5" />
    <circle
       style="fill:#3a5b5c;fill-opacity:1;stroke-width:0.201527;stroke-linejoin:round"
       id="circle10"
       cx="95.25"
       cy="63.5"
       r="7.5" />
    <circle
       style="fill:#3a5b5c;fill-opacity:1;stroke-width:0.201527;stroke-linejoin:round"
       id="circle11"
       cx="63.5"
       cy="63.5"
       r="7.5" />
    <circle
       style="fill:#3a5b5c;fill-opacity:1;stroke-width:0.201527;stroke-linejoin:round"
       id="circle12"
       cx="63.5"
       cy="95.25"
       r="7.5" />
  </g>
  <g
     inkscape:label="1"
     inkscape:groupmode="layer"
     id="g21"
     style="display:inline">
    <rect
       style="opacity:0.5;fill:#ffffff;fill-opacity:1;stroke-width:0.264583;stroke-linejoin:round"
       id="rect12"
       width="127"
       height="127"
       x="0"
       y="0"
       sodipodi:insensitive="true" />
    <rect
       style="display:inline;opacity:0.5;fill:#000000;fill-opacity:1;stroke-width:0.295813;stroke-linejoin:round"
       id="rect21"
       width="6.25"
       height="127"
       x="1.110223e-16"
       y="0" />
    <circle
       style="fill:#3a5b5c;fill-opacity:1;stroke-width:0.201527;stroke-linejoin:round"
       id="circle13"
       cx="31.75"
       cy="95.25"
       r="7.5" />
    <circle
       style="fill:#3a5b5c;fill-opacity:1;stroke-width:0.201527;stroke-linejoin:round"
       id="circle14"
       cx="95.25"
       cy="95.25"
       r="7.5" />
    <circle
       style="fill:#3a5b5c;fill-opacity:1;stroke-width:0.201527;stroke-linejoin:round"
       id="circle15"
       cx="95.25"
       cy="31.75"
       r="7.5" />
    <circle
       style="fill:#3a5b5c;fill-opacity:1;stroke-width:0.201527;stroke-linejoin:round"
       id="circle16"
       cx="31.75"
       cy="31.75"
       r="7.5" />
    <circle
       style="fill:#3a5b5c;fill-opacity:1;stroke-width:0.201527;stroke-linejoin:round"
       id="circle17"
       cx="63.5"
       cy="31.75"
       r="7.5" />
    <circle
       style="fill:#3a5b5c;fill-opacity:1;stroke-width:0.201527;stroke-linejoin:round"
       id="circle18"
       cx="31.75"
       cy="63.5"
       r="7.5" />
    <circle
       style="fill:#3a5b5c;fill-opacity:1;stroke-width:0.201527;stroke-linejoin:round"
       id="circle19"
       cx="95.25"
       cy="63.5"
       r="7.5" />
    <circle
       style="fill:#3a5b5c;fill-opacity:1;stroke-width:0.201527;stroke-linejoin:round"
       id="circle20"
       cx="63.5"
       cy="63.5"
       r="7.5" />
    <circle
       style="fill:#3a5b5c;fill-opacity:1;stroke-width:0.201527;stroke-linejoin:round"
       id="circle21"
       cx="63.5"
       cy="95.25"
       r="7.5" />
  </g>
  <g
     inkscape:label="2"
     inkscape:groupmode="layer"
     id="g67"
     style="display:inline">
    <rect
       style="opacity:0.5;fill:#ffffff;fill-opacity:1;stroke-width:0.264583;stroke-linejoin:round"
       id="rect58"
       width="127"
       height="127"
       x="0"
       y="0"
       sodipodi:insensitive="true" />
    <rect
       style="display:inline;opacity:0.5;fill:#000000;fill-opacity:1;stroke-width:0.330729;stroke-linejoin:round"
       id="rect59"
       width="7.8125"
       height="127"
       x="1.110223e-16"
       y="0" />
    <circle
       style="fill:#3a5b5c;fill-opacity:1;stroke-width:0.201527;stroke-linejoin:round"
       id="circle59"
       cx="31.75"
       cy="95.25"
       r="7.5" />
    <circle
       style="fill:#3a5b5c;fill-opacity:1;stroke-width:0.201527;stroke-linejoin:round"
       id="circle60"
       cx="95.25"
       cy="95.25"
       r="7.5" />
    <circle
       style="fill:#3a5b5c;fill-opacity:1;stroke-width:0.201527;stroke-linejoin:round"
       id="circle61"
       cx="95.25"
       cy="31.75"
       r="7.5" />
    <circle
       style="fill:#3a5b5c;fill-opacity:1;stroke-width:0.201527;stroke-linejoin:round"
       id="circle62"
       cx="31.75"
       cy="31.75"
       r="7.5" />
    <circle
       style="fill:#3a5b5c;fill-opacity:1;stroke-width:0.201527;stroke-linejoin:round"
       id="circle63"
       cx="63.5"
       cy="31.75"
       r="7.5" />
    <circle
       style="fill:#3a5b5c;fill-opacity:1;stroke-width:0.201527;stroke-linejoin:round"
       id="circle64"
       cx="31.75"
       cy="63.5"
       r="7.5" />
    <circle
       style="fill:#3a5b5c;fill-opacity:1;stroke-width:0.201527;stroke-linejoin:round"
       id="circle65"
       cx="95.25"
       cy="63.5"
       r="7.5" />
    <circle
       style="fill:#3a5b5c;fill-opacity:1;stroke-width:0.201527;stroke-linejoin:round"
       id="circle66"
       cx="63.5"
       cy="63.5"
       r="7.5" />
    <circle
       style="fill:#3a5b5c;fill-opacity:1;stroke-width:0.201527;stroke-linejoin:round"
       id="circle67"
       cx="63.5"
       cy="95.25"
       r="7.5" />
  </g>
  <g
     inkscape:label="3"
     inkscape:groupmode="layer"
     id="g76"
     style="display:inline">
    <rect
       style="opacity:0.5;fill:#ffffff;fill-opacity:1;stroke-width:0.264583;stroke-linejoin:round"
       id="rect67"
       width="127"
       height="127"
       x="0"
       y="0"
       sodipodi:insensitive="true" />
    <rect
       style="display:inline;opacity:0.5;fill:#000000;fill-opacity:1;stroke-width:0.369766;stroke-linejoin:round"
       id="rect68"
       width="9.765625"
       height="127"
       x="0"
       y="0" />
    <circle
       style="fill:#3a5b5c;fill-opacity:1;stroke-width:0.201527;stroke-linejoin:round"
       id="circle68"
       cx="31.75"
       cy="95.25"
       r="7.5" />
    <circle
       style="fill:#3a5b5c;fill-opacity:1;stroke-width:0.201527;stroke-linejoin:round"
       id="circle69"
       cx="95.25"
       cy="95.25"
       r="7.5" />
    <circle
       style="fill:#3a5b5c;fill-opacity:1;stroke-width:0.201527;stroke-linejoin:round"
       id="circle70"
       cx="95.25"
       cy="31.75"
       r="7.5" />
    <circle
       style="fill:#3a5b5c;fill-opacity:1;stroke-width:0.201527;stroke-linejoin:round"
       id="circle71"
       cx="31.75"
       cy="31.75"
       r="7.5" />
    <circle
       style="fill:#3a5b5c;fill-opacity:1;stroke-width:0.201527;stroke-linejoin:round"
       id="circle72"
       cx="63.5"
       cy="31.75"
       r="7.5" />
    <circle
       style="fill:#3a5b5c;fill-opacity:1;stroke-width:0.201527;stroke-linejoin:round"
       id="circle73"
       cx="31.75"
       cy="63.5"
       r="7.5" />
    <circle
       style="fill:#3a5b5c;fill-opacity:1;stroke-width:0.201527;stroke-linejoin:round"
       id="circle74"
       cx="95.25"
       cy="63.5"
       r="7.5" />
    <circle
       style="fill:#3a5b5c;fill-opacity:1;stroke-width:0.201527;stroke-linejoin:round"
       id="circle75"
       cx="63.5"
       cy="63.5"
       r="7.5" />
    <circle
       style="fill:#3a5b5c;fill-opacity:1;stroke-width:0.201527;stroke-linejoin:round"
       id="circle76"
       cx="63.5"
       cy="95.25"
       r="7.5" />
  </g>
  <g
     inkscape:label="4"
     inkscape:groupmode="layer"
     id="g85"
     style="display:inline">
    <rect
       style="opacity:0.5;fill:#ffffff;fill-opacity:1;stroke-width:0.264583;stroke-linejoin:round"
       id="rect76"
       width="127"
       height="127"
       x="0"
       y="0"
       sodipodi:insensitive="true" />
    <rect
       style="display:inline;opacity:0.5;fill:#000000;fill-opacity:1;stroke-width:0.413411;stroke-linejoin:round"
       id="rect77"
       width="12.207031"
       height="127"
       x="0"
       y="0" />
    <circle
       style="fill:#3a5b5c;fill-opacity:1;stroke-width:0.201527;stroke-linejoin:round"
       id="circle77"
       cx="31.75"
       cy="95.25"
       r="7.5" />
    <circle
       style="fill:#3a5b5c;fill-opacity:1;stroke-width:0.201527;stroke-linejoin:round"
       id="circle78"
       cx="95.25"
       cy="95.25"
       r="7.5" />
    <circle
       style="fill:#3a5b5c;fill-opacity:1;stroke-width:0.201527;stroke-linejoin:round"
       id="circle79"
       cx="95.25"
       cy="31.75"
       r="7.5" />
    <circle
       style="fill:#3a5b5c;fill-opacity:1;stroke-width:0.201527;stroke-linejoin:round"
       id="circle80"
       cx="31.75"
       cy="31.75"
       r="7.5" />
    <circle
       style="fill:#3a5b5c;fill-opacity:1;stroke-width:0.201527;stroke-linejoin:round"
       id="circle81"
       cx="63.5"
       cy="31.75"
       r="7.5" />
    <circle
       style="fill:#3a5b5c;fill-opacity:1;stroke-width:0.201527;stroke-linejoin:round"
       id="circle82"
       cx="31.75"
       cy="63.5"
       r="7.5" />
    <circle
       style="fill:#3a5b5c;fill-opacity:1;stroke-width:0.201527;stroke-linejoin:round"
       id="circle83"
       cx="95.25"
       cy="63.5"
       r="7.5" />
    <circle
       style="fill:#3a5b5c;fill-opacity:1;stroke-width:0.201527;stroke-linejoin:round"
       id="circle84"
       cx="63.5"
       cy="63.5"
       r="7.5" />
    <circle
       style="fill:#3a5b5c;fill-opacity:1;stroke-width:0.201527;stroke-linejoin:round"
       id="circle85"
       cx="63.5"
       cy="95.25"
       r="7.5" />
  </g>
  <g
     inkscape:label="5"
     inkscape:groupmode="layer"
     id="g94"
     style="display:inline">
    <rect
       style="opacity:0.5;fill:#ffffff;fill-opacity:1;stroke-width:0.264583;stroke-linejoin:round"
       id="rect85"
       width="127"
       height="127"
       x="0"
       y="0"
       sodipodi:insensitive="true" />
    <rect
       style="display:inline;opacity:0.5;fill:#000000;fill-opacity:1;stroke-width:0.462208;stroke-linejoin:round"
       id="rect86"
       width="15.258789"
       height="127"
       x="0"
       y="0" />
    <circle
       style="fill:#3a5b5c;fill-opacity:1;stroke-width:0.201527;stroke-linejoin:round"
       id="circle86"
       cx="31.75"
       cy="95.25"
       r="7.5" />
    <circle
       style="fill:#3a5b5c;fill-opacity:1;stroke-width:0.201527;stroke-linejoin:round"
       id="circle87"
       cx="95.25"
       cy="95.25"
       r="7.5" />
    <circle
       style="fill:#3a5b5c;fill-opacity:1;stroke-width:0.201527;stroke-linejoin:round"
       id="circle88"
       cx="95.25"
       cy="31.75"
       r="7.5" />
    <circle
       style="fill:#3a5b5c;fill-opacity:1;stroke-width:0.201527;stroke-linejoin:round"
       id="circle89"
       cx="31.75"
       cy="31.75"
       r="7.5" />
    <circle
       style="fill:#3a5b5c;fill-opacity:1;stroke-width:0.201527;stroke-linejoin:round"
       id="circle90"
       cx="63.5"
       cy="31.75"
       r="7.5" />
    <circle
       style="fill:#3a5b5c;fill-opacity:1;stroke-width:0.201527;stroke-linejoin:round"
       id="circle91"
       cx="31.75"
       cy="63.5"
       r="7.5" />
    <circle
       style="fill:#3a5b5c;fill-opacity:1;stroke-width:0.201527;stroke-linejoin:round"
       id="circle92"
       cx="95.25"
       cy="63.5"
       r="7.5" />
    <circle
       style="fill:#3a5b5c;fill-opacity:1;stroke-width:0.201527;stroke-linejoin:round"
       id="circle93"
       cx="63.5"
       cy="63.5"
       r="7.5" />
    <circle
       style="fill:#3a5b5c;fill-opacity:1;stroke-width:0.201527;stroke-linejoin:round"
       id="circle94"
       cx="63.5"
       cy="95.25"
       r="7.5" />
  </g>
  <g
     inkscape:label="6"
     inkscape:groupmode="layer"
     id="g103"
     style="display:inline">
    <rect
       style="opacity:0.5;fill:#ffffff;fill-opacity:1;stroke-width:0.264583;stroke-linejoin:round"
       id="rect94"
       width="127"
       height="127"
       x="0"
       y="0"
       sodipodi:insensitive="true" />
    <rect
       style="display:inline;opacity:0.5;fill:#000000;fill-opacity:1;stroke-width:0.516764;stroke-linejoin:round"
       id="rect95"
       width="19.073486"
       height="127"
       x="0"
       y="0" />
    <circle
       style="fill:#3a5b5c;fill-opacity:1;stroke-width:0.201527;stroke-linejoin:round"
       id="circle95"
       cx="31.75"
       cy="95.25"
       r="7.5" />
    <circle
       style="fill:#3a5b5c;fill-opacity:1;stroke-width:0.201527;stroke-linejoin:round"
       id="circle96"
       cx="95.25"
       cy="95.25"
       r="7.5" />
    <circle
       style="fill:#3a5b5c;fill-opacity:1;stroke-width:0.201527;stroke-linejoin:round"
       id="circle97"
       cx="95.25"
       cy="31.75"
       r="7.5" />
    <circle
       style="fill:#3a5b5c;fill-opacity:1;stroke-width:0.201527;stroke-linejoin:round"
       id="circle98"
       cx="31.75"
       cy="31.75"
       r="7.5" />
    <circle
       style="fill:#3a5b5c;fill-opacity:1;stroke-width:0.201527;stroke-linejoin:round"
       id="circle99"
       cx="63.5"
       cy="31.75"
       r="7.5" />
    <circle
       style="fill:#3a5b5c;fill-opacity:1;stroke-width:0.201527;stroke-linejoin:round"
       id="circle100"
       cx="31.75"
       cy="63.5"
       r="7.5" />
    <circle
       style="fill:#3a5b5c;fill-opacity:1;stroke-width:0.201527;stroke-linejoin:round"
       id="circle101"
       cx="95.25"
       cy="63.5"
       r="7.5" />
    <circle
       style="fill:#3a5b5c;fill-opacity:1;stroke-width:0.201527;stroke-linejoin:round"
       id="circle102"
       cx="63.5"
       cy="63.5"
       r="7.5" />
    <circle
       style="fill:#3a5b5c;fill-opacity:1;stroke-width:0.201527;stroke-linejoin:round"
       id="circle103"
       cx="63.5"
       cy="95.25"
       r="7.5" />
  </g>
  <g
     inkscape:label="7"
     inkscape:groupmode="layer"
     id="g112"
     style="display:inline">
    <rect
       style="opacity:0.5;fill:#ffffff;fill-opacity:1;stroke-width:0.264583;stroke-linejoin:round"
       id="rect103"
       width="127"
       height="127"
       x="0"
       y="0"
       sodipodi:insensitive="true" />
    <rect
       style="display:inline;opacity:0.5;fill:#000000;fill-opacity:1;stroke-width:0.57776;stroke-linejoin:round"
       id="rect104"
       width="23.841858"
       height="127"
       x="0"
       y="-4.2188475e-15" />
    <circle
       style="fill:#3a5b5c;fill-opacity:1;stroke-width:0.201527;stroke-linejoin:round"
       id="circle104"
       cx="31.75"
       cy="95.25"
       r="7.5" />
    <circle
       style="fill:#3a5b5c;fill-opacity:1;stroke-width:0.201527;stroke-linejoin:round"
       id="circle105"
       cx="95.25"
       cy="95.25"
       r="7.5" />
    <circle
       style="fill:#3a5b5c;fill-opacity:1;stroke-width:0.201527;stroke-linejoin:round"
       id="circle106"
       cx="95.25"
       cy="31.75"
       r="7.5" />
    <circle
       style="fill:#3a5b5c;fill-opacity:1;stroke-width:0.201527;stroke-linejoin:round"
       id="circle107"
       cx="31.75"
       cy="31.75"
       r="7.5" />
    <circle
       style="fill:#3a5b5c;fill-opacity:1;stroke-width:0.201527;stroke-linejoin:round"
       id="circle108"
       cx="63.5"
       cy="31.75"
       r="7.5" />
    <circle
       style="fill:#3a5b5c;fill-opacity:1;stroke-width:0.201527;stroke-linejoin:round"
       id="circle109"
       cx="31.75"
       cy="63.5"
       r="7.5" />
    <circle
       style="fill:#3a5b5c;fill-opacity:1;stroke-width:0.201527;stroke-linejoin:round"
       id="circle110"
       cx="95.25"
       cy="63.5"
       r="7.5" />
    <circle
       style="fill:#3a5b5c;fill-opacity:1;stroke-width:0.201527;stroke-linejoin:round"
       id="circle111"
       cx="63.5"
       cy="63.5"
       r="7.5" />
    <circle
       style="fill:#3a5b5c;fill-opacity:1;stroke-width:0.201527;stroke-linejoin:round"
       id="circle112"
       cx="63.5"
       cy="95.25"
       r="7.5" />
  </g>
  <g
     inkscape:label="8"
     inkscape:groupmode="layer"
     id="g121"
     style="display:inline">
    <rect
       style="opacity:0.5;fill:#ffffff;fill-opacity:1;stroke-width:0.264583;stroke-linejoin:round"
       id="rect112"
       width="127"
       height="127"
       x="0"
       y="0"
       sodipodi:insensitive="true" />
    <rect
       style="display:inline;opacity:0.5;fill:#000000;fill-opacity:1;stroke-width:0.645955;stroke-linejoin:round"
       id="rect184"
       width="29.802322"
       height="127"
       x="4.4408921e-16"
       y="0" />
    <path
       id="circle113"
       style="fill:#3a5b5c;fill-opacity:1;stroke-width:0.201527;stroke-linejoin:round"
       d="M 29.802315,102.48212 A 7.5,7.5 0 0 0 31.75,102.7498 7.5,7.5 0 0 0 39.249801,95.25 7.5,7.5 0 0 0 31.75,87.750199 7.5,7.5 0 0 0 29.802315,88.017883 Z" />
    <path
       id="path187"
       style="fill:#00cacc;fill-opacity:1;stroke-width:0.201527;stroke-linejoin:round"
       d="M 29.802315,102.48212 V 88.017883 A 7.5,7.5 0 0 0 24.250199,95.25 a 7.5,7.5 0 0 0 5.552116,7.23212 z" />
    <circle
       style="fill:#3a5b5c;fill-opacity:1;stroke-width:0.201527;stroke-linejoin:round"
       id="circle114"
       cx="95.25"
       cy="95.25"
       r="7.5" />
    <circle
       style="fill:#3a5b5c;fill-opacity:1;stroke-width:0.201527;stroke-linejoin:round"
       id="circle115"
       cx="95.25"
       cy="31.75"
       r="7.5" />
    <path
       id="circle116"
       style="fill:#3a5b5c;fill-opacity:1;stroke-width:0.201527;stroke-linejoin:round"
       d="M 29.802315,38.982117 A 7.5,7.5 0 0 0 31.75,39.249801 7.5,7.5 0 0 0 39.249801,31.75 7.5,7.5 0 0 0 31.75,24.250199 7.5,7.5 0 0 0 29.802315,24.517883 Z" />
    <path
       id="path188"
       style="fill:#00cacc;fill-opacity:1;stroke-width:0.201527;stroke-linejoin:round"
       d="M 29.802315,38.982117 V 24.517883 A 7.5,7.5 0 0 0 24.250199,31.75 a 7.5,7.5 0 0 0 5.552116,7.232117 z" />
    <circle
       style="fill:#3a5b5c;fill-opacity:1;stroke-width:0.201527;stroke-linejoin:round"
       id="circle117"
       cx="63.5"
       cy="31.75"
       r="7.5" />
    <path
       id="circle118"
       style="fill:#3a5b5c;fill-opacity:1;stroke-width:0.201527;stroke-linejoin:round"
       d="M 29.802315,70.732117 A 7.5,7.5 0 0 0 31.75,70.999801 7.5,7.5 0 0 0 39.249801,63.5 7.5,7.5 0 0 0 31.75,56.000199 7.5,7.5 0 0 0 29.802315,56.267883 Z" />
    <path
       id="path189"
       style="fill:#00cacc;fill-opacity:1;stroke-width:0.201527;stroke-linejoin:round"
       d="M 29.802315,70.732117 V 56.267883 A 7.5,7.5 0 0 0 24.250199,63.5 a 7.5,7.5 0 0 0 5.552116,7.232117 z" />
    <circle
       style="fill:#3a5b5c;fill-opacity:1;stroke-width:0.201527;stroke-linejoin:round"
       id="circle119"
       cx="95.25"
       cy="63.5"
       r="7.5" />
    <circle
       style="fill:#3a5b5c;fill-opacity:1;stroke-width:0.201527;stroke-linejoin:round"
       id="circle120"
       cx="63.5"
       cy="63.5"
       r="7.5" />
    <circle
       style="fill:#3a5b5c;fill-opacity:1;stroke-width:0.201527;stroke-linejoin:round"
       id="circle121"
       cx="63.5"
       cy="95.25"
       r="7.5" />
  </g>
  <g
     inkscape:label="9"
     inkscape:groupmode="layer"
     id="g130"
     style="display:inline">
    <rect
       style="opacity:0.5;fill:#ffffff;fill-opacity:1;stroke-width:0.264583;stroke-linejoin:round"
       id="rect121"
       width="127"
       height="127"
       x="0"
       y="0"
       sodipodi:insensitive="true" />
    <rect
       style="display:inline;opacity:0.5;fill:#000000;fill-opacity:1;stroke-width:0.7222;stroke-linejoin:round"
       id="rect122"
       width="37.252903"
       height="127"
       x="0"
       y="0" />
    <path
       id="circle122"
       style="fill:#3a5b5c;fill-opacity:1;stroke-width:0.201527;stroke-linejoin:round"
       d="M 37.253023,100.32618 A 7.5,7.5 0 0 0 39.249801,95.25 7.5,7.5 0 0 0 37.253023,90.156254 Z" />
    <path
       id="path7"
       style="fill:#00cacc;fill-opacity:1;stroke-width:0.201527;stroke-linejoin:round"
       d="M 37.253023,100.32618 V 90.156254 A 7.5,7.5 0 0 0 31.75,87.750199 7.5,7.5 0 0 0 24.250199,95.25 7.5,7.5 0 0 0 31.75,102.7498 a 7.5,7.5 0 0 0 5.503023,-2.42362 z" />
    <circle
       style="fill:#3a5b5c;fill-opacity:1;stroke-width:0.201527;stroke-linejoin:round"
       id="circle123"
       cx="95.25"
       cy="95.25"
       r="7.5" />
    <circle
       style="fill:#3a5b5c;fill-opacity:1;stroke-width:0.201527;stroke-linejoin:round"
       id="circle124"
       cx="95.25"
       cy="31.75"
       r="7.5" />
    <path
       id="circle125"
       style="fill:#3a5b5c;fill-opacity:1;stroke-width:0.201527;stroke-linejoin:round"
       d="M 37.253023,36.826176 A 7.5,7.5 0 0 0 39.249801,31.75 7.5,7.5 0 0 0 37.253023,26.656254 Z" />
    <path
       id="path6"
       style="fill:#00cacc;fill-opacity:1;stroke-width:0.201527;stroke-linejoin:round"
       d="M 37.253023,36.826176 V 26.656254 A 7.5,7.5 0 0 0 31.75,24.250199 7.5,7.5 0 0 0 24.250199,31.75 7.5,7.5 0 0 0 31.75,39.249801 7.5,7.5 0 0 0 37.253023,36.826176 Z" />
    <circle
       style="fill:#3a5b5c;fill-opacity:1;stroke-width:0.201527;stroke-linejoin:round"
       id="circle126"
       cx="63.5"
       cy="31.75"
       r="7.5" />
    <path
       id="circle127"
       style="fill:#3a5b5c;fill-opacity:1;stroke-width:0.201527;stroke-linejoin:round"
       d="M 37.253023,68.576176 A 7.5,7.5 0 0 0 39.249801,63.5 7.5,7.5 0 0 0 37.253023,58.406254 Z" />
    <path
       id="path5"
       style="fill:#00cacc;fill-opacity:1;stroke-width:0.201527;stroke-linejoin:round"
       d="M 37.253023,68.576176 V 58.406254 A 7.5,7.5 0 0 0 31.75,56.000199 7.5,7.5 0 0 0 24.250199,63.5 7.5,7.5 0 0 0 31.75,70.999801 7.5,7.5 0 0 0 37.253023,68.576176 Z" />
    <circle
       style="fill:#3a5b5c;fill-opacity:1;stroke-width:0.201527;stroke-linejoin:round"
       id="circle128"
       cx="95.25"
       cy="63.5"
       r="7.5" />
    <circle
       style="fill:#3a5b5c;fill-opacity:1;stroke-width:0.201527;stroke-linejoin:round"
       id="circle129"
       cx="63.5"
       cy="63.5"
       r="7.5" />
    <circle
       style="fill:#3a5b5c;fill-opacity:1;stroke-width:0.201527;stroke-linejoin:round"
       id="circle130"
       cx="63.5"
       cy="95.25"
       r="7.5" />
  </g>
  <g
     inkscape:label="10"
     inkscape:groupmode="layer"
     id="g139"
     style="display:inline">
    <rect
       style="opacity:0.5;fill:#ffffff;fill-opacity:1;stroke-width:0.264583;stroke-linejoin:round"
       id="rect130"
       width="127"
       height="127"
       x="0"
       y="0"
       sodipodi:insensitive="true" />
    <rect
       style="display:inline;opacity:0.5;fill:#000000;fill-opacity:1;stroke-width:0.807444;stroke-linejoin:round"
       id="rect131"
       width="46.566128"
       height="127"
       x="0"
       y="0" />
    <circle
       style="fill:#00cacc;fill-opacity:1;stroke-width:0.201527;stroke-linejoin:round"
       id="circle131"
       cx="31.75"
       cy="95.25"
       r="7.5" />
    <circle
       style="fill:#3a5b5c;fill-opacity:1;stroke-width:0.201527;stroke-linejoin:round"
       id="circle132"
       cx="95.25"
       cy="95.25"
       r="7.5" />
    <circle
       style="fill:#3a5b5c;fill-opacity:1;stroke-width:0.201527;stroke-linejoin:round"
       id="circle133"
       cx="95.25"
       cy="31.75"
       r="7.5" />
    <circle
       style="fill:#00cacc;fill-opacity:1;stroke-width:0.201527;stroke-linejoin:round"
       id="circle134"
       cx="31.75"
       cy="31.75"
       r="7.5" />
    <circle
       style="fill:#3a5b5c;fill-opacity:1;stroke-width:0.201527;stroke-linejoin:round"
       id="circle135"
       cx="63.5"
       cy="31.75"
       r="7.5" />
    <circle
       style="fill:#00cacc;fill-opacity:1;stroke-width:0.201527;stroke-linejoin:round"
       id="circle136"
       cx="31.75"
       cy="63.5"
       r="7.5" />
    <circle
       style="fill:#3a5b5c;fill-opacity:1;stroke-width:0.201527;stroke-linejoin:round"
       id="circle137"
       cx="95.25"
       cy="63.5"
       r="7.5" />
    <circle
       style="fill:#3a5b5c;fill-opacity:1;stroke-width:0.201527;stroke-linejoin:round"
       id="circle138"
       cx="63.5"
       cy="63.5"
       r="7.5" />
    <circle
       style="fill:#3a5b5c;fill-opacity:1;stroke-width:0.201527;stroke-linejoin:round"
       id="circle139"
       cx="63.5"
       cy="95.25"
       r="7.5" />
  </g>
  <g
     inkscape:label="11"
     inkscape:groupmode="layer"
     id="g148"
     style="display:inline">
    <rect
       style="opacity:0.5;fill:#ffffff;fill-opacity:1;stroke-width:0.264583;stroke-linejoin:round"
       id="rect139"
       width="127"
       height="127"
       x="0"
       y="0"
       sodipodi:insensitive="true" />
    <rect
       style="display:inline;opacity:0.5;fill:#000000;fill-opacity:1;stroke-width:0.90275;stroke-linejoin:round"
       id="rect140"
       width="58.207661"
       height="127"
       x="0"
       y="0" />
    <circle
       style="fill:#00cacc;fill-opacity:1;stroke-width:0.201527;stroke-linejoin:round"
       id="circle140"
       cx="31.75"
       cy="95.25"
       r="7.5" />
    <circle
       style="fill:#3a5b5c;fill-opacity:1;stroke-width:0.201527;stroke-linejoin:round"
       id="circle141"
       cx="95.25"
       cy="95.25"
       r="7.5" />
    <circle
       style="fill:#3a5b5c;fill-opacity:1;stroke-width:0.201527;stroke-linejoin:round"
       id="circle142"
       cx="95.25"
       cy="31.75"
       r="7.5" />
    <circle
       style="fill:#00cacc;fill-opacity:1;stroke-width:0.201527;stroke-linejoin:round"
       id="circle143"
       cx="31.75"
       cy="31.75"
       r="7.5" />
    <path
       id="circle144"
       style="fill:#3a5b5c;fill-opacity:1;stroke-width:0.201527;stroke-linejoin:round"
       d="M 58.207817 37.037016 A 7.5 7.5 0 0 0 63.5 39.249801 A 7.5 7.5 0 0 0 70.999801 31.75 A 7.5 7.5 0 0 0 63.5 24.250199 A 7.5 7.5 0 0 0 58.207817 26.462984 L 58.207817 37.037016 z " />
    <path
       id="path9"
       style="fill:#00cacc;fill-opacity:1;stroke-width:0.201527;stroke-linejoin:round"
       d="M 58.207817 37.037016 L 58.207817 26.462984 A 7.5 7.5 0 0 0 56.000199 31.75 A 7.5 7.5 0 0 0 58.207817 37.037016 z " />
    <circle
       style="fill:#00cacc;fill-opacity:1;stroke-width:0.201527;stroke-linejoin:round"
       id="circle145"
       cx="31.75"
       cy="63.5"
       r="7.5" />
    <circle
       style="fill:#3a5b5c;fill-opacity:1;stroke-width:0.201527;stroke-linejoin:round"
       id="circle146"
       cx="95.25"
       cy="63.5"
       r="7.5" />
    <path
       id="circle147"
       style="fill:#3a5b5c;fill-opacity:1;stroke-width:0.201527;stroke-linejoin:round"
       d="M 58.207817 68.787016 A 7.5 7.5 0 0 0 63.5 70.999801 A 7.5 7.5 0 0 0 70.999801 63.5 A 7.5 7.5 0 0 0 63.5 56.000199 A 7.5 7.5 0 0 0 58.207817 58.212984 L 58.207817 68.787016 z " />
    <path
       id="path10"
       style="fill:#00cacc;fill-opacity:1;stroke-width:0.201527;stroke-linejoin:round"
       d="M 58.207817 68.787016 L 58.207817 58.212984 A 7.5 7.5 0 0 0 56.000199 63.5 A 7.5 7.5 0 0 0 58.207817 68.787016 z " />
    <path
       id="circle148"
       style="fill:#3a5b5c;fill-opacity:1;stroke-width:0.201527;stroke-linejoin:round"
       d="M 58.207817 100.53702 A 7.5 7.5 0 0 0 63.5 102.7498 A 7.5 7.5 0 0 0 70.999801 95.25 A 7.5 7.5 0 0 0 63.5 87.750199 A 7.5 7.5 0 0 0 58.207817 89.962984 L 58.207817 100.53702 z " />
    <path
       id="path11"
       style="fill:#00cacc;fill-opacity:1;stroke-width:0.201527;stroke-linejoin:round"
       d="M 58.207817 100.53702 L 58.207817 89.962984 A 7.5 7.5 0 0 0 56.000199 95.25 A 7.5 7.5 0 0 0 58.207817 100.53702 z " />
  </g>
  <g
     inkscape:label="12"
     inkscape:groupmode="layer"
     id="g157"
     style="display:inline">
    <rect
       style="opacity:0.5;fill:#ffffff;fill-opacity:1;stroke-width:0.264583;stroke-linejoin:round"
       id="rect148"
       width="127"
       height="127"
       x="0"
       y="0"
       sodipodi:insensitive="true" />
    <rect
       style="display:inline;opacity:0.5;fill:#000000;fill-opacity:1;stroke-width:1.00931;stroke-linejoin:round"
       id="rect149"
       width="72.759575"
       height="127"
       x="0"
       y="0" />
    <circle
       style="fill:#00cacc;fill-opacity:1;stroke-width:0.201527;stroke-linejoin:round"
       id="circle149"
       cx="31.75"
       cy="95.25"
       r="7.5" />
    <circle
       style="fill:#3a5b5c;fill-opacity:1;stroke-width:0.201527;stroke-linejoin:round"
       id="circle150"
       cx="95.25"
       cy="95.25"
       r="7.5" />
    <circle
       style="fill:#3a5b5c;fill-opacity:1;stroke-width:0.201527;stroke-linejoin:round"
       id="circle151"
       cx="95.25"
       cy="31.75"
       r="7.5" />
    <circle
       style="fill:#00cacc;fill-opacity:1;stroke-width:0.201527;stroke-linejoin:round"
       id="circle152"
       cx="31.75"
       cy="31.75"
       r="7.5" />
    <circle
       style="fill:#00cacc;fill-opacity:1;stroke-width:0.201527;stroke-linejoin:round"
       id="circle153"
       cx="63.5"
       cy="31.75"
       r="7.5" />
    <circle
       style="fill:#00cacc;fill-opacity:1;stroke-width:0.201527;stroke-linejoin:round"
       id="circle154"
       cx="31.75"
       cy="63.5"
       r="7.5" />
    <circle
       style="fill:#3a5b5c;fill-opacity:1;stroke-width:0.201527;stroke-linejoin:round"
       id="circle155"
       cx="95.25"
       cy="63.5"
       r="7.5" />
    <circle
       style="fill:#00cacc;fill-opacity:1;stroke-width:0.201527;stroke-linejoin:round"
       id="circle156"
       cx="63.5"
       cy="63.5"
       r="7.5" />
    <circle
       style="fill:#00cacc;fill-opacity:1;stroke-width:0.201527;stroke-linejoin:round"
       id="circle157"
       cx="63.5"
       cy="95.25"
       r="7.5" />
  </g>
  <g
     inkscape:label="13"
     inkscape:groupmode="layer"
     id="g166"
     style="display:inline">
    <rect
       style="opacity:0.5;fill:#ffffff;fill-opacity:1;stroke-width:0.264583;stroke-linejoin:round"
       id="rect157"
       width="127"
       height="127"
       x="0"
       y="0"
       sodipodi:insensitive="true" />
    <rect
       style="display:inline;opacity:0.5;fill:#000000;fill-opacity:1;stroke-width:1.12844;stroke-linejoin:round"
       id="rect158"
       width="90.949471"
       height="127"
       x="1.7763568e-15"
       y="0" />
    <circle
       style="fill:#00cacc;fill-opacity:1;stroke-width:0.201527;stroke-linejoin:round"
       id="circle158"
       cx="31.75"
       cy="95.25"
       r="7.5" />
    <path
       id="circle159"
       style="fill:#3a5b5c;fill-opacity:1;stroke-width:0.201527;stroke-linejoin:round"
       d="M 90.949487 101.37521 A 7.5 7.5 0 0 0 95.25 102.7498 A 7.5 7.5 0 0 0 102.7498 95.25 A 7.5 7.5 0 0 0 95.25 87.750199 A 7.5 7.5 0 0 0 90.949487 89.124792 L 90.949487 101.37521 z " />
    <path
       id="path15"
       style="fill:#00cacc;fill-opacity:1;stroke-width:0.201527;stroke-linejoin:round"
       d="M 90.949487 101.37521 L 90.949487 89.124792 A 7.5 7.5 0 0 0 87.750199 95.25 A 7.5 7.5 0 0 0 90.949487 101.37521 z " />
    <path
       id="circle160"
       style="fill:#3a5b5c;fill-opacity:1;stroke-width:0.201527;stroke-linejoin:round"
       d="M 90.949487 37.875208 A 7.5 7.5 0 0 0 95.25 39.249801 A 7.5 7.5 0 0 0 102.7498 31.75 A 7.5 7.5 0 0 0 95.25 24.250199 A 7.5 7.5 0 0 0 90.949487 25.624792 L 90.949487 37.875208 z " />
    <path
       id="path16"
       style="fill:#00cacc;fill-opacity:1;stroke-width:0.201527;stroke-linejoin:round"
       d="M 90.949487 37.875208 L 90.949487 25.624792 A 7.5 7.5 0 0 0 87.750199 31.75 A 7.5 7.5 0 0 0 90.949487 37.875208 z " />
    <circle
       style="fill:#00cacc;fill-opacity:1;stroke-width:0.201527;stroke-linejoin:round"
       id="circle161"
       cx="31.75"
       cy="31.75"
       r="7.5" />
    <circle
       style="fill:#00cacc;fill-opacity:1;stroke-width:0.201527;stroke-linejoin:round"
       id="circle162"
       cx="63.5"
       cy="31.75"
       r="7.5" />
    <circle
       style="fill:#00cacc;fill-opacity:1;stroke-width:0.201527;stroke-linejoin:round"
       id="circle163"
       cx="31.75"
       cy="63.5"
       r="7.5" />
    <path
       id="circle164"
       style="fill:#3a5b5c;fill-opacity:1;stroke-width:0.201527;stroke-linejoin:round"
       d="M 90.949487 69.625208 A 7.5 7.5 0 0 0 95.25 70.999801 A 7.5 7.5 0 0 0 102.7498 63.5 A 7.5 7.5 0 0 0 95.25 56.000199 A 7.5 7.5 0 0 0 90.949487 57.374792 L 90.949487 69.625208 z " />
    <path
       id="path14"
       style="fill:#00cacc;fill-opacity:1;stroke-width:0.201527;stroke-linejoin:round"
       d="M 90.949487 69.625208 L 90.949487 57.374792 A 7.5 7.5 0 0 0 87.750199 63.5 A 7.5 7.5 0 0 0 90.949487 69.625208 z " />
    <circle
       style="fill:#00cacc;fill-opacity:1;stroke-width:0.201527;stroke-linejoin:round"
       id="circle165"
       cx="63.5"
       cy="63.5"
       r="7.5" />
    <circle
       style="fill:#00cacc;fill-opacity:1;stroke-width:0.201527;stroke-linejoin:round"
       id="circle166"
       cx="63.5"
       cy="95.25"
       r="7.5" />
  </g>
  <g
     inkscape:label="14"
     inkscape:groupmode="layer"
     id="g175"
     style="display:inline">
    <rect
       style="opacity:0.5;fill:#ffffff;fill-opacity:1;stroke-width:0.264583;stroke-linejoin:round"
       id="rect166"
       width="127"
       height="127"
       x="0"
       y="0"
       sodipodi:insensitive="true" />
    <rect
       style="display:inline;opacity:0.5;fill:#000000;fill-opacity:1;stroke-width:1.26163;stroke-linejoin:round"
       id="rect167"
       width="113.68684"
       height="127"
       x="0"
       y="0" />
    <circle
       style="fill:#00cacc;fill-opacity:1;stroke-width:0.201527;stroke-linejoin:round"
       id="circle167"
       cx="31.75"
       cy="95.25"
       r="7.5" />
    <circle
       style="fill:#00cacc;fill-opacity:1;stroke-width:0.201527;stroke-linejoin:round"
       id="circle168"
       cx="95.25"
       cy="95.25"
       r="7.5" />
    <circle
       style="fill:#00cacc;fill-opacity:1;stroke-width:0.201527;stroke-linejoin:round"
       id="circle169"
       cx="95.25"
       cy="31.75"
       r="7.5" />
    <circle
       style="fill:#00cacc;fill-opacity:1;stroke-width:0.201527;stroke-linejoin:round"
       id="circle170"
       cx="31.75"
       cy="31.75"
       r="7.5" />
    <circle
       style="fill:#00cacc;fill-opacity:1;stroke-width:0.201527;stroke-linejoin:round"
       id="circle171"
       cx="63.5"
       cy="31.75"
       r="7.5" />
    <circle
       style="fill:#00cacc;fill-opacity:1;stroke-width:0.201527;stroke-linejoin:round"
       id="circle172"
       cx="31.75"
       cy="63.5"
       r="7.5" />
    <circle
       style="fill:#00cacc;fill-opacity:1;stroke-width:0.201527;stroke-linejoin:round"
       id="circle173"
       cx="95.25"
       cy="63.5"
       r="7.5" />
    <circle
       style="fill:#00cacc;fill-opacity:1;stroke-width:0.201527;stroke-linejoin:round"
       id="circle174"
       cx="63.5"
       cy="63.5"
       r="7.5" />
    <circle
       style="fill:#00cacc;fill-opacity:1;stroke-width:0.201527;stroke-linejoin:round"
       id="circle175"
       cx="63.5"
       cy="95.25"
       r="7.5" />
  </g>
  <g
     inkscape:label="15"
     inkscape:groupmode="layer"
     id="g184"
     style="display:inline">
    <rect
       style="display:inline;opacity:0.5;fill:#ffffff;fill-opacity:1;stroke-width:0.264583;stroke-linejoin:round"
       id="rect16"
       width="127"
       height="127"
       x="0"
       y="0"
       sodipodi:insensitive="true" />
    <rect
       style="display:inline;opacity:0.5;fill:#000000;fill-opacity:1;stroke-width:1.33346;stroke-linejoin:round"
       id="rect176"
       width="127"
       height="127"
       x="0"
       y="0" />
    <circle
       style="fill:#00cacc;fill-opacity:1;stroke-width:0.201527;stroke-linejoin:round"
       id="circle176"
       cx="31.75"
       cy="95.25"
       r="7.5" />
    <circle
       style="fill:#00cacc;fill-opacity:1;stroke-width:0.201527;stroke-linejoin:round"
       id="circle177"
       cx="95.25"
       cy="95.25"
       r="7.5" />
    <circle
       style="fill:#00cacc;fill-opacity:1;stroke-width:0.201527;stroke-linejoin:round"
       id="circle178"
       cx="95.25"
       cy="31.75"
       r="7.5" />
    <circle
       style="fill:#00cacc;fill-opacity:1;stroke-width:0.201527;stroke-linejoin:round"
       id="circle179"
       cx="31.75"
       cy="31.75"
       r="7.5" />
    <circle
       style="fill:#00cacc;fill-opacity:1;stroke-width:0.201527;stroke-linejoin:round"
       id="circle180"
       cx="63.5"
       cy="31.75"
       r="7.5" />
    <circle
       style="fill:#00cacc;fill-opacity:1;stroke-width:0.201527;stroke-linejoin:round"
       id="circle181"
       cx="31.75"
       cy="63.5"
       r="7.5" />
    <circle
       style="fill:#00cacc;fill-opacity:1;stroke-width:0.201527;stroke-linejoin:round"
       id="circle182"
       cx="95.25"
       cy="63.5"
       r="7.5" />
    <circle
       style="fill:#00cacc;fill-opacity:1;stroke-width:0.201527;stroke-linejoin:round"
       id="circle183"
       cx="63.5"
       cy="63.5"
       r="7.5" />
    <circle
       style="fill:#00cacc;fill-opacity:1;stroke-width:0.201527;stroke-linejoin:round"
       id="circle184"
       cx="63.5"
       cy="95.25"
       r="7.5" />
  </g>
</svg>
